<?xml version="1.0" standalone="no"?>
<!DOCTYPE svg PUBLIC "-//W3C//DTD SVG 20010904//EN"
 "http://www.w3.org/TR/2001/REC-SVG-20010904/DTD/svg10.dtd">
<svg version="1.0" xmlns="http://www.w3.org/2000/svg"
 width="16.000000pt" height="16.000000pt" viewBox="0 0 16.000000 16.000000"
 preserveAspectRatio="xMidYMid meet">
<metadata>
Created by potrace 1.11, written by Peter Selinger 2001-2013
</metadata>
<g transform="translate(0.000000,16.000000) scale(0.008000,-0.008000)"
fill="#000000" stroke="none">
<path d="M90 1820 c0 -116 3 -170 11 -170 6 0 22 9 36 20 25 19 41 20 349 20
l324 0 0 -241 0 -241 -62 49 c-143 112 -479 365 -482 362 -8 -12 -188 -325
-189 -331 -1 -4 138 -101 310 -215 l311 -208 -91 -60 c-51 -33 -186 -122 -301
-198 -115 -76 -216 -141 -223 -146 -11 -5 9 -47 84 -174 58 -100 103 -165 110
-163 7 3 129 93 273 201 l260 195 0 -235 c0 -224 -1 -235 -20 -247 -11 -7 -20
-16 -20 -20 0 -5 104 -8 230 -8 127 0 230 2 230 5 0 3 -9 14 -20 25 -19 19
-20 33 -20 256 0 181 3 233 12 228 7 -4 129 -97 271 -207 143 -109 263 -195
267 -190 14 16 190 314 190 322 0 7 -146 105 -577 387 -23 15 -40 30 -38 34 3
4 142 97 310 206 216 141 303 203 300 213 -3 8 -47 84 -97 168 -59 101 -95
152 -104 149 -7 -3 -130 -93 -274 -201 l-260 -195 0 240 0 240 339 0 c323 0
339 -1 364 -20 14 -11 30 -20 36 -20 8 0 11 54 11 170 l0 170 -925 0 -925 0 0
-170z"/>
</g>
</svg>
