<svg version="1.1" xmlns="http://www.w3.org/2000/svg" viewBox="0 0 535.5758778574964 411.15786693411064" width="535.5758778574964" height="411.15786693411064">
  <!-- svg-source:excalidraw -->
  
  <defs>
    <style class="style-fonts">
      @font-face {
        font-family: "Virgil";
        src: url("https://excalidraw.com/Virgil.woff2");
      }
      @font-face {
        font-family: "Cascadia";
        src: url("https://excalidraw.com/Cascadia.woff2");
      }
      @font-face {
        font-family: "Assistant";
        src: url("https://excalidraw.com/Assistant-Regular.woff2");
      }
    </style>
    
  </defs>
  <rect x="0" y="0" width="535.5758778574964" height="411.15786693411064" fill="#ffffff"></rect><g stroke-linecap="round" transform="translate(11.732065855345354 51.245507805714624) rotate(0 86.85073074660204 37.610572858926844)"><path d="M108.75 9.5 C119.17 15.86, 128.88 20.35, 151.95 28.5 M108.75 9.5 C121.95 14.73, 133.65 19.72, 151.95 28.5 M151.95 28.5 C171.75 37.68, 174.3 39.08, 151.95 47.5 M151.95 28.5 C175.59 38.71, 173.5 39.53, 151.95 47.5 M151.95 47.5 C138.04 52.64, 124.63 59.51, 108.75 65.72 M151.95 47.5 C136.94 52.51, 122.74 59, 108.75 65.72 M108.75 65.72 C88.62 73.31, 85.21 73.82, 65.25 65.72 M108.75 65.72 C87.51 72.95, 89.06 75.74, 65.25 65.72 M65.25 65.72 C49.69 62.07, 35.9 54.83, 21.75 47.5 M65.25 65.72 C54.77 61.72, 44.68 57.02, 21.75 47.5 M21.75 47.5 C0.42 36.91, -0.15 39.49, 21.75 28.5 M21.75 47.5 C0.89 38.43, 1.63 39.97, 21.75 28.5 M21.75 28.5 C35.45 21.61, 48.76 17.55, 65.25 9.5 M21.75 28.5 C33.87 22.26, 47.32 17.24, 65.25 9.5 M65.25 9.5 C87.96 -1.4, 87.19 1.16, 108.75 9.5 M65.25 9.5 C87.88 -0.37, 88.85 1.67, 108.75 9.5" stroke="#1e1e1e" stroke-width="2" fill="none"></path></g><g stroke-linecap="round"><g transform="translate(180.97964372051774 88.03175040213591) rotate(0 40.24342927794669 1.7255947155599642)"><path d="M-0.3 -0.76 C12.8 -0.34, 66.35 2.39, 79.66 2.93 M1.75 1.46 C15.13 2, 68.57 3.89, 81.93 4.19" stroke="#1e1e1e" stroke-width="2" fill="none"></path></g><g transform="translate(180.97964372051774 88.03175040213591) rotate(0 40.24342927794669 1.7255947155599642)"><path d="M58.2 12.03 C66.15 7.65, 75.78 4.37, 81.93 4.19 M58.2 12.03 C63.35 10.1, 68.47 8.5, 81.93 4.19" stroke="#1e1e1e" stroke-width="2" fill="none"></path></g><g transform="translate(180.97964372051774 88.03175040213591) rotate(0 40.24342927794669 1.7255947155599642)"><path d="M58.71 -5.06 C66.52 -2.78, 75.95 0.59, 81.93 4.19 M58.71 -5.06 C63.86 -3.28, 68.87 -1.19, 81.93 4.19" stroke="#1e1e1e" stroke-width="2" fill="none"></path></g></g><mask></mask><g transform="translate(68.14792514373676 79.94831340857945) rotate(0 36.32500076293945 10)"><text x="0" y="14.016" font-family="Virgil, Segoe UI Emoji" font-size="16px" fill="#1e1e1e" text-anchor="start" style="white-space: pre;" direction="ltr" dominant-baseline="alphabetic">/ or /vijf</text></g><g transform="translate(266.8219942358892 87.93360546951408) rotate(0 18.90833282470703 10)"><text x="0" y="14.016" font-family="Virgil, Segoe UI Emoji" font-size="16px" fill="#1e1e1e" text-anchor="start" style="white-space: pre;" direction="ltr" dominant-baseline="alphabetic">index</text></g><g stroke-linecap="round"><g transform="translate(96.355854787932 124.98202564755866) rotate(0 0.24743797933479073 26.97073974751993)"><path d="M-0.84 0.27 C-0.76 9.63, 0.76 46.06, 1.16 55.12 M0.92 -0.63 C0.85 8.52, 0.5 44.73, 0.56 53.62" stroke="#1e1e1e" stroke-width="2" fill="none"></path></g><g transform="translate(96.355854787932 124.98202564755866) rotate(0 0.24743797933479073 26.97073974751993)"><path d="M-7.93 30.11 C-4.68 39.59, -0.16 48.51, 0.56 53.62 M-7.93 30.11 C-4.95 38.4, -2.12 46.52, 0.56 53.62" stroke="#1e1e1e" stroke-width="2" fill="none"></path></g><g transform="translate(96.355854787932 124.98202564755866) rotate(0 0.24743797933479073 26.97073974751993)"><path d="M9.17 30.15 C6.37 39.5, 4.84 48.4, 0.56 53.62 M9.17 30.15 C5.97 38.27, 2.61 46.37, 0.56 53.62" stroke="#1e1e1e" stroke-width="2" fill="none"></path></g></g><mask></mask><g stroke-linecap="round"><g transform="translate(97.84048266394257 9.675927277426126) rotate(0 -0.49781114553343286 20.53862336288057)"><path d="M-0.26 0.53 C-0.58 7.27, -1.24 33.89, -1.39 40.59 M0.6 0.32 C0.41 7.11, 0 34.23, -0.36 41.03" stroke="#1e1e1e" stroke-width="2" fill="none"></path></g><g transform="translate(97.84048266394257 9.675927277426126) rotate(0 -0.49781114553343286 20.53862336288057)"><path d="M-6.77 21.52 C-3.27 28.5, -2.6 36.63, -0.36 41.03 M-6.77 21.52 C-5.42 26.19, -3.39 31.26, -0.36 41.03" stroke="#1e1e1e" stroke-width="2" fill="none"></path></g><g transform="translate(97.84048266394257 9.675927277426126) rotate(0 -0.49781114553343286 20.53862336288057)"><path d="M7.27 21.96 C5.25 28.73, 0.4 36.69, -0.36 41.03 M7.27 21.96 C5.3 26.46, 4 31.43, -0.36 41.03" stroke="#1e1e1e" stroke-width="2" fill="none"></path></g></g><mask></mask><g stroke-linecap="round" transform="translate(11.484627876010563 180.90300897727866) rotate(0 86.85073074660204 37.610572858926844)"><path d="M108.75 9.5 C117.08 12.34, 126.58 16.86, 151.95 28.5 M108.75 9.5 C123.71 15.64, 136.44 21.65, 151.95 28.5 M151.95 28.5 C175.13 38.46, 172.06 38.98, 151.95 47.5 M151.95 28.5 C173.05 38.53, 174.15 37.44, 151.95 47.5 M151.95 47.5 C136.81 54.75, 121.64 60.36, 108.75 65.72 M151.95 47.5 C137.23 53.91, 122.64 60.22, 108.75 65.72 M108.75 65.72 C88.67 74.56, 85.64 76.55, 65.25 65.72 M108.75 65.72 C84.92 72.94, 89.23 76.32, 65.25 65.72 M65.25 65.72 C54.38 61.93, 42.29 57.63, 21.75 47.5 M65.25 65.72 C52.68 60.94, 39.83 54.42, 21.75 47.5 M21.75 47.5 C0.85 38.01, 1.17 37.34, 21.75 28.5 M21.75 47.5 C-1.28 39.13, 1.66 36.32, 21.75 28.5 M21.75 28.5 C37.1 22.63, 54.95 13.45, 65.25 9.5 M21.75 28.5 C30.66 24.76, 40.73 20.63, 65.25 9.5 M65.25 9.5 C88.89 0.96, 86.6 -1.13, 108.75 9.5 M65.25 9.5 C86.09 -1.95, 86.9 -0.04, 108.75 9.5" stroke="#1e1e1e" stroke-width="2" fill="none"></path></g><g transform="translate(75.7266608060745 208.70829540674185) rotate(0 22.683332443237305 10)"><text x="22.683332443237305" y="14.016" font-family="Virgil, Segoe UI Emoji" font-size="16px" fill="#1e1e1e" text-anchor="middle" style="white-space: pre;" direction="ltr" dominant-baseline="alphabetic">/maps</text></g><g stroke-linecap="round"><g transform="translate(182.32564160307447 220.84203319365042) rotate(0 27.28749272358209 -0.5300784670293979)"><path d="M0.53 -0.04 C9.72 -0.09, 46.67 -0.02, 55.6 -0.1 M-0.66 -1.11 C8.42 -1.49, 46.24 -1.48, 55.19 -1.73" stroke="#1e1e1e" stroke-width="2" fill="none"></path></g><g transform="translate(182.32564160307447 220.84203319365042) rotate(0 27.28749272358209 -0.5300784670293979)"><path d="M31.8 7.1 C39.66 5.72, 49.25 0.21, 55.19 -1.73 M31.8 7.1 C40.18 3.64, 48.7 1.02, 55.19 -1.73" stroke="#1e1e1e" stroke-width="2" fill="none"></path></g><g transform="translate(182.32564160307447 220.84203319365042) rotate(0 27.28749272358209 -0.5300784670293979)"><path d="M31.6 -10 C39.55 -5.58, 49.21 -5.29, 55.19 -1.73 M31.6 -10 C39.9 -7.56, 48.49 -4.27, 55.19 -1.73" stroke="#1e1e1e" stroke-width="2" fill="none"></path></g></g><mask></mask><g transform="translate(244.32376643028965 210.59556649748447) rotate(0 18.683332443237305 10)"><text x="0" y="14.016" font-family="Virgil, Segoe UI Emoji" font-size="16px" fill="#1e1e1e" text-anchor="start" style="white-space: pre;" direction="ltr" dominant-baseline="alphabetic">maps</text></g><g stroke-linecap="round"><g transform="translate(96.85073074660158 256.12415469513326) rotate(0 0.24743797933524547 22.764294098824394)"><path d="M-0.45 -0.41 C-0.2 7.13, 0.76 37.81, 1.01 45.45 M0.33 0.57 C0.59 8.18, 0.73 38.54, 0.84 46.11" stroke="#1e1e1e" stroke-width="2" fill="none"></path></g><g transform="translate(96.85073074660158 256.12415469513326) rotate(0 0.24743797933524547 22.764294098824394)"><path d="M-7.15 24.79 C-6.13 30.34, -3.81 34.98, 0.84 46.11 M-7.15 24.79 C-5.04 31.05, -2.49 36.95, 0.84 46.11" stroke="#1e1e1e" stroke-width="2" fill="none"></path></g><g transform="translate(96.85073074660158 256.12415469513326) rotate(0 0.24743797933524547 22.764294098824394)"><path d="M8.43 24.65 C6.1 30.16, 5.08 34.83, 0.84 46.11 M8.43 24.65 C6.07 30.95, 4.18 36.89, 0.84 46.11" stroke="#1e1e1e" stroke-width="2" fill="none"></path></g></g><mask></mask><g stroke-linecap="round" transform="translate(10 301.15786693411064) rotate(0 88.08792064327736 50)"><path d="M111.25 12.75 C127.78 20.69, 144.24 31.96, 153.93 38.25 M111.25 12.75 C126.38 22.4, 142.45 32.38, 153.93 38.25 M153.93 38.25 C176.95 49.14, 174.9 50.11, 153.93 63.75 M153.93 38.25 C176.32 51.03, 173.97 49.09, 153.93 63.75 M153.93 63.75 C138.89 70.3, 126.57 79.15, 111.25 87.25 M153.93 63.75 C140.32 72.09, 125.95 78.85, 111.25 87.25 M111.25 87.25 C87.78 101.8, 89.36 98.36, 66.75 87.25 M111.25 87.25 C87.97 100.72, 88.1 101.87, 66.75 87.25 M66.75 87.25 C52.06 78.73, 34.52 69.36, 22.25 63.75 M66.75 87.25 C52.89 80.14, 36.74 71.69, 22.25 63.75 M22.25 63.75 C0.63 51.67, -1.48 50.5, 22.25 38.25 M22.25 63.75 C0.67 49.55, 1.33 52.05, 22.25 38.25 M22.25 38.25 C38.65 27.74, 57.57 16.85, 66.75 12.75 M22.25 38.25 C36.08 29.92, 50.39 21.85, 66.75 12.75 M66.75 12.75 C90.58 -0.44, 89.99 -1.76, 111.25 12.75 M66.75 12.75 C89.61 0.31, 91.02 1.88, 111.25 12.75" stroke="#1e1e1e" stroke-width="2" fill="none"></path></g><g transform="translate(59.31896184751804 331.15786693411064) rotate(0 38.724998474121094 20)"><text x="38.724998474121094" y="14.016" font-family="Virgil, Segoe UI Emoji" font-size="16px" fill="#1e1e1e" text-anchor="middle" style="white-space: pre;" direction="ltr" dominant-baseline="alphabetic">/avontuur</text><text x="38.724998474121094" y="34.016" font-family="Virgil, Segoe UI Emoji" font-size="16px" fill="#1e1e1e" text-anchor="middle" style="white-space: pre;" direction="ltr" dominant-baseline="alphabetic">/x</text></g><g stroke-linecap="round"><g transform="translate(182.38766432391276 349.97530680748514) rotate(0 23.54491167313654 0.11258370923042094)"><path d="M-0.02 -0.08 C7.79 -0.03, 39.39 -0.21, 47.25 -0.19 M-0.7 -0.6 C7.03 -0.45, 38.98 0.11, 46.9 0.3" stroke="#1e1e1e" stroke-width="2" fill="none"></path></g><g transform="translate(182.38766432391276 349.97530680748514) rotate(0 23.54491167313654 0.11258370923042094)"><path d="M24.62 7.9 C32.68 5.41, 40.25 2.49, 46.9 0.3 M24.62 7.9 C30.14 6.02, 36.19 4.06, 46.9 0.3" stroke="#1e1e1e" stroke-width="2" fill="none"></path></g><g transform="translate(182.38766432391276 349.97530680748514) rotate(0 23.54491167313654 0.11258370923042094)"><path d="M24.94 -8.2 C32.82 -4.78, 40.26 -1.8, 46.9 0.3 M24.94 -8.2 C30.35 -5.81, 36.31 -3.51, 46.9 0.3" stroke="#1e1e1e" stroke-width="2" fill="none"></path></g></g><mask></mask><g transform="translate(234.9211232155585 341.2428195863886) rotate(0 14.608333587646484 10)"><text x="0" y="14.016" font-family="Virgil, Segoe UI Emoji" font-size="16px" fill="#1e1e1e" text-anchor="start" style="white-space: pre;" direction="ltr" dominant-baseline="alphabetic">blog</text></g><g stroke-linecap="round"><g transform="translate(273.00763953152364 351.0620258711997) rotate(0 32.42384154370666 0.26155271159586846)"><path d="M-0.91 0.31 C9.67 0.59, 52.86 0.78, 63.99 0.95 M0.81 -0.57 C11.72 -0.59, 55.45 -0.94, 66.25 -0.95" stroke="#1e1e1e" stroke-width="2" fill="none"></path></g><g transform="translate(273.00763953152364 351.0620258711997) rotate(0 32.42384154370666 0.26155271159586846)"><path d="M42.8 7.71 C51.4 3.49, 59.6 3.63, 66.25 -0.95 M42.8 7.71 C50.63 4.07, 60.71 1.89, 66.25 -0.95" stroke="#1e1e1e" stroke-width="2" fill="none"></path></g><g transform="translate(273.00763953152364 351.0620258711997) rotate(0 32.42384154370666 0.26155271159586846)"><path d="M42.71 -9.39 C51.24 -7.76, 59.47 -1.78, 66.25 -0.95 M42.71 -9.39 C50.74 -6.81, 60.86 -2.77, 66.25 -0.95" stroke="#1e1e1e" stroke-width="2" fill="none"></path></g></g><mask></mask><g transform="translate(495.22587747602665 341.2428195863895) rotate(0 15.175000190734863 10)"><text x="0" y="14.016" font-family="Virgil, Segoe UI Emoji" font-size="16px" fill="#1e1e1e" text-anchor="start" style="white-space: pre;" direction="ltr" dominant-baseline="alphabetic">lang</text></g><g transform="translate(345.77333795765935 341.2428195863886) rotate(0 13.866666793823242 10)"><text x="0" y="14.016" font-family="Virgil, Segoe UI Emoji" font-size="16px" fill="#1e1e1e" text-anchor="start" style="white-space: pre;" direction="ltr" dominant-baseline="alphabetic">cat</text></g><g stroke-linecap="round"><g transform="translate(376.5936132558636 352.1092230039594) rotate(0 13.361650884092342 0.30544132907061794)"><path d="M-0.14 -0.2 C4.41 -0.22, 22.27 -0.04, 26.73 0.1 M0.79 -0.78 C5.31 -0.76, 22.06 0.2, 26.3 0.54" stroke="#1e1e1e" stroke-width="2" fill="none"></path></g><g transform="translate(376.5936132558636 352.1092230039594) rotate(0 13.361650884092342 0.30544132907061794)"><path d="M13.47 4.27 C15.83 3.54, 18.06 2.65, 26.3 0.54 M13.47 4.27 C17.44 2.91, 21.32 1.79, 26.3 0.54" stroke="#1e1e1e" stroke-width="2" fill="none"></path></g><g transform="translate(376.5936132558636 352.1092230039594) rotate(0 13.361650884092342 0.30544132907061794)"><path d="M14.08 -4.85 C16.33 -3.73, 18.44 -2.76, 26.3 0.54 M14.08 -4.85 C17.87 -3.41, 21.56 -1.72, 26.3 0.54" stroke="#1e1e1e" stroke-width="2" fill="none"></path></g></g><mask></mask><g stroke-linecap="round"><g transform="translate(277.1046130615432 359.52092513617663) rotate(0 31.434089626366585 9.043449047645026)"><path d="M0.37 1.09 C11.19 4.2, 53.68 15.1, 63.98 17.74 M-0.9 0.61 C9.95 3.98, 52.69 16.26, 63.61 19.09" stroke="#1e1e1e" stroke-width="2" fill="none"></path></g><g transform="translate(277.1046130615432 359.52092513617663) rotate(0 31.434089626366585 9.043449047645026)"><path d="M38.69 21.09 C45.96 22.43, 49.01 18.92, 63.61 19.09 M38.69 21.09 C44.39 21.47, 48.88 21.22, 63.61 19.09" stroke="#1e1e1e" stroke-width="2" fill="none"></path></g><g transform="translate(277.1046130615432 359.52092513617663) rotate(0 31.434089626366585 9.043449047645026)"><path d="M43.24 4.6 C49.38 9.56, 51.44 9.65, 63.61 19.09 M43.24 4.6 C48.1 8.29, 51.67 11.36, 63.61 19.09" stroke="#1e1e1e" stroke-width="2" fill="none"></path></g></g><mask></mask><g stroke-linecap="round"><g transform="translate(279.57899285489293 346.3287030114416) rotate(0 30.41842369330743 -7.985896610331565)"><path d="M-0.49 -0.09 C9.76 -2.59, 50.22 -12.42, 60.37 -15.14 M1.46 -1.19 C11.61 -4, 49.51 -14.47, 59.18 -16.82" stroke="#1e1e1e" stroke-width="2" fill="none"></path></g><g transform="translate(279.57899285489293 346.3287030114416) rotate(0 30.41842369330743 -7.985896610331565)"><path d="M38.62 -2.6 C42.71 -6.21, 48.48 -9, 59.18 -16.82 M38.62 -2.6 C43.51 -6.8, 48.96 -10.51, 59.18 -16.82" stroke="#1e1e1e" stroke-width="2" fill="none"></path></g><g transform="translate(279.57899285489293 346.3287030114416) rotate(0 30.41842369330743 -7.985896610331565)"><path d="M34.29 -19.14 C39.24 -19.34, 45.9 -18.73, 59.18 -16.82 M34.29 -19.14 C40.29 -18.96, 46.88 -18.28, 59.18 -16.82" stroke="#1e1e1e" stroke-width="2" fill="none"></path></g></g><mask></mask><g stroke-linecap="round"><g transform="translate(279.2696658968389 338.4617897975377) rotate(0 27.134869477362372 -13.336234534596315)"><path d="M1.09 -0.27 C9.91 -4.86, 44.5 -23.25, 53.33 -27.73 M0.2 -1.46 C9.36 -5.91, 46.71 -22.65, 55.54 -26.75" stroke="#1e1e1e" stroke-width="2" fill="none"></path></g><g transform="translate(279.2696658968389 338.4617897975377) rotate(0 27.134869477362372 -13.336234534596315)"><path d="M37.7 -9.23 C43.23 -16.8, 47.86 -21.41, 55.54 -26.75 M37.7 -9.23 C41.75 -13.9, 47.16 -18.24, 55.54 -26.75" stroke="#1e1e1e" stroke-width="2" fill="none"></path></g><g transform="translate(279.2696658968389 338.4617897975377) rotate(0 27.134869477362372 -13.336234534596315)"><path d="M30.62 -24.79 C38.48 -27.24, 45.48 -26.66, 55.54 -26.75 M30.62 -24.79 C36.57 -25.41, 43.84 -25.66, 55.54 -26.75" stroke="#1e1e1e" stroke-width="2" fill="none"></path></g></g><mask></mask><g stroke-linecap="round"><g transform="translate(275.26998671140973 365.3246086634863) rotate(0 29.87702300808178 13.81218464337644)"><path d="M-0.42 -0.1 C9.75 4.34, 50.73 23.2, 60.77 27.64 M1.56 -1.2 C11.69 3.97, 50.77 24.44, 60.36 29.19" stroke="#1e1e1e" stroke-width="2" fill="none"></path></g><g transform="translate(275.26998671140973 365.3246086634863) rotate(0 29.87702300808178 13.81218464337644)"><path d="M35.55 26.1 C42.29 28.74, 49.36 28.01, 60.36 29.19 M35.55 26.1 C41.09 27.48, 46.31 27.89, 60.36 29.19" stroke="#1e1e1e" stroke-width="2" fill="none"></path></g><g transform="translate(275.26998671140973 365.3246086634863) rotate(0 29.87702300808178 13.81218464337644)"><path d="M43.34 10.88 C48.04 17.71, 52.96 21.2, 60.36 29.19 M43.34 10.88 C47.17 15.42, 50.75 19.03, 60.36 29.19" stroke="#1e1e1e" stroke-width="2" fill="none"></path></g></g><mask></mask><g transform="translate(411.0868245510492 343.6147185531454) rotate(0 25.46666717529297 10)"><text x="0" y="14.016" font-family="Virgil, Segoe UI Emoji" font-size="16px" fill="#1e1e1e" text-anchor="start" style="white-space: pre;" direction="ltr" dominant-baseline="alphabetic">abbrev</text></g><g stroke-linecap="round"><g transform="translate(374.0454118050584 358.68325572507183) rotate(0 13.361650884092342 0.30544132907061794)"><path d="M-0.18 0.01 C4.38 0.18, 22.35 0.51, 26.9 0.7 M0.72 -0.46 C5.27 -0.16, 22.18 1.31, 26.56 1.44" stroke="#1e1e1e" stroke-width="2" fill="none"></path></g><g transform="translate(374.0454118050584 358.68325572507183) rotate(0 13.361650884092342 0.30544132907061794)"><path d="M13.74 5.22 C16.46 4.66, 19.26 4.12, 26.56 1.44 M13.74 5.22 C19.15 3.45, 23.68 1.98, 26.56 1.44" stroke="#1e1e1e" stroke-width="2" fill="none"></path></g><g transform="translate(374.0454118050584 358.68325572507183) rotate(0 13.361650884092342 0.30544132907061794)"><path d="M14.31 -3.9 C16.88 -2.54, 19.57 -1.15, 26.56 1.44 M14.31 -3.9 C19.47 -2.06, 23.78 0.08, 26.56 1.44" stroke="#1e1e1e" stroke-width="2" fill="none"></path></g></g><mask></mask><g stroke-linecap="round"><g transform="translate(374.5402877637289 367.096147022462) rotate(0 13.361650884092342 0.30544132907061794)"><path d="M0.28 -0.49 C4.61 -0.44, 21.81 -0.01, 26.23 0.15 M-0.24 0.44 C4.24 0.56, 22.76 0.52, 27.21 0.61" stroke="#1e1e1e" stroke-width="2" fill="none"></path></g><g transform="translate(374.5402877637289 367.096147022462) rotate(0 13.361650884092342 0.30544132907061794)"><path d="M14.62 5.08 C18.28 2.94, 22.57 2.1, 27.21 0.61 M14.62 5.08 C17.78 4.04, 21.35 2.63, 27.21 0.61" stroke="#1e1e1e" stroke-width="2" fill="none"></path></g><g transform="translate(374.5402877637289 367.096147022462) rotate(0 13.361650884092342 0.30544132907061794)"><path d="M14.69 -4.06 C18.31 -3.11, 22.58 -0.86, 27.21 0.61 M14.69 -4.06 C17.8 -2.59, 21.34 -1.49, 27.21 0.61" stroke="#1e1e1e" stroke-width="2" fill="none"></path></g></g><mask></mask><g stroke-linecap="round"><g transform="translate(373.05565988772014 376.49879023719495) rotate(0 13.361650884092342 0.30544132907061794)"><path d="M0.07 -0.06 C4.46 -0.04, 21.89 -0.01, 26.29 0.07 M-0.56 -0.56 C4 -0.49, 22.88 0.25, 27.31 0.49" stroke="#1e1e1e" stroke-width="2" fill="none"></path></g><g transform="translate(373.05565988772014 376.49879023719495) rotate(0 13.361650884092342 0.30544132907061794)"><path d="M14.56 4.49 C18.28 2.77, 21.48 1.81, 27.31 0.49 M14.56 4.49 C17.91 3.2, 21.02 2.47, 27.31 0.49" stroke="#1e1e1e" stroke-width="2" fill="none"></path></g><g transform="translate(373.05565988772014 376.49879023719495) rotate(0 13.361650884092342 0.30544132907061794)"><path d="M14.96 -4.64 C18.56 -3.65, 21.64 -1.89, 27.31 0.49 M14.96 -4.64 C18.25 -3.58, 21.26 -1.95, 27.31 0.49" stroke="#1e1e1e" stroke-width="2" fill="none"></path></g></g><mask></mask><g stroke-linecap="round"><g transform="translate(375.0351637224003 342.35234908895654) rotate(0 13.361650884092342 0.30544132907061794)"><path d="M0.09 -0.29 C4.61 -0.05, 22.5 0.76, 27.02 0.98 M-0.52 0.74 C3.95 0.87, 22.13 0.3, 26.74 0.21" stroke="#1e1e1e" stroke-width="2" fill="none"></path></g><g transform="translate(375.0351637224003 342.35234908895654) rotate(0 13.361650884092342 0.30544132907061794)"><path d="M14.3 5.1 C17.54 4.04, 21.93 2.86, 26.74 0.21 M14.3 5.1 C18.84 3.14, 23.86 1.24, 26.74 0.21" stroke="#1e1e1e" stroke-width="2" fill="none"></path></g><g transform="translate(375.0351637224003 342.35234908895654) rotate(0 13.361650884092342 0.30544132907061794)"><path d="M14.07 -4.04 C17.34 -2.47, 21.79 -1.02, 26.74 0.21 M14.07 -4.04 C18.69 -2.55, 23.8 -1, 26.74 0.21" stroke="#1e1e1e" stroke-width="2" fill="none"></path></g></g><mask></mask><g stroke-linecap="round"><g transform="translate(376.51979159840903 333.444581832895) rotate(0 13.361650884092342 0.30544132907061794)"><path d="M0.44 -0.34 C4.87 -0.22, 22.21 0.81, 26.63 1.02 M0.01 0.68 C4.35 0.62, 21.7 0.37, 26.15 0.27" stroke="#1e1e1e" stroke-width="2" fill="none"></path></g><g transform="translate(376.51979159840903 333.444581832895) rotate(0 13.361650884092342 0.30544132907061794)"><path d="M13.67 5.07 C17.18 3.39, 22.02 2.27, 26.15 0.27 M13.67 5.07 C17.96 3.32, 22.99 1.85, 26.15 0.27" stroke="#1e1e1e" stroke-width="2" fill="none"></path></g><g transform="translate(376.51979159840903 333.444581832895) rotate(0 13.361650884092342 0.30544132907061794)"><path d="M13.51 -4.07 C17.09 -2.87, 21.98 -1.12, 26.15 0.27 M13.51 -4.07 C17.89 -2.51, 22.98 -0.66, 26.15 0.27" stroke="#1e1e1e" stroke-width="2" fill="none"></path></g></g><mask></mask><g stroke-linecap="round"><g transform="translate(375.0351637224003 325.0316905355048) rotate(0 13.361650884092342 0.30544132907061794)"><path d="M0.07 0.44 C4.47 0.59, 22.22 0.48, 26.69 0.48 M-0.56 0.19 C3.74 0.46, 21.71 0.98, 26.25 1.11" stroke="#1e1e1e" stroke-width="2" fill="none"></path></g><g transform="translate(375.0351637224003 325.0316905355048) rotate(0 13.361650884092342 0.30544132907061794)"><path d="M13.56 5.31 C18.58 3.79, 22.37 2.59, 26.25 1.11 M13.56 5.31 C16.74 4.35, 20.3 3.43, 26.25 1.11" stroke="#1e1e1e" stroke-width="2" fill="none"></path></g><g transform="translate(375.0351637224003 325.0316905355048) rotate(0 13.361650884092342 0.30544132907061794)"><path d="M13.83 -3.83 C18.72 -2.13, 22.41 -0.1, 26.25 1.11 M13.83 -3.83 C16.9 -2.35, 20.4 -0.81, 26.25 1.11" stroke="#1e1e1e" stroke-width="2" fill="none"></path></g></g><mask></mask><g stroke-linecap="round"><g transform="translate(375.53003968106805 318.5983030727921) rotate(0 13.361650884092342 0.30544132907061794)"><path d="M0.45 0.45 C5 0.64, 22.37 0.49, 26.73 0.61 M0.02 0.21 C4.54 0.54, 21.94 1.28, 26.31 1.3" stroke="#1e1e1e" stroke-width="2" fill="none"></path></g><g transform="translate(375.53003968106805 318.5983030727921) rotate(0 13.361650884092342 0.30544132907061794)"><path d="M13.63 5.53 C16.77 4.63, 18.78 3.66, 26.31 1.3 M13.63 5.53 C18.53 3.85, 23.91 2.41, 26.31 1.3" stroke="#1e1e1e" stroke-width="2" fill="none"></path></g><g transform="translate(375.53003968106805 318.5983030727921) rotate(0 13.361650884092342 0.30544132907061794)"><path d="M13.88 -3.61 C16.92 -2.66, 18.88 -1.78, 26.31 1.3 M13.88 -3.61 C18.65 -1.65, 23.93 0.53, 26.31 1.3" stroke="#1e1e1e" stroke-width="2" fill="none"></path></g></g><mask></mask><g stroke-linecap="round"><g transform="translate(464.1128362830168 351.7549923036886) rotate(0 13.361650884092342 0.4684954034191833)"><path d="M-0.28 -0.37 C4.09 -0.1, 21.83 1.06, 26.36 1.23 M0.58 0.63 C5.11 0.78, 23.06 0.34, 27.41 0.42" stroke="#1e1e1e" stroke-width="2" fill="none"></path></g><g transform="translate(464.1128362830168 351.7549923036886) rotate(0 13.361650884092342 0.4684954034191833)"><path d="M14.87 5.06 C18.5 3.15, 23.38 2.33, 27.41 0.42 M14.87 5.06 C18.14 3.86, 21.22 3.14, 27.41 0.42" stroke="#1e1e1e" stroke-width="2" fill="none"></path></g><g transform="translate(464.1128362830168 351.7549923036886) rotate(0 13.361650884092342 0.4684954034191833)"><path d="M14.82 -4.08 C18.43 -3.03, 23.33 -0.88, 27.41 0.42 M14.82 -4.08 C18.1 -3.03, 21.19 -1.49, 27.41 0.42" stroke="#1e1e1e" stroke-width="2" fill="none"></path></g></g><mask></mask><g stroke-linecap="round"><g transform="translate(465.1025882003578 361.15763551842247) rotate(0 13.379646504371522 0.28929234162251305)"><path d="M0.52 -0.11 C4.96 -0.11, 22.83 0.16, 27.12 0.35 M0.12 -0.64 C4.49 -0.59, 22.34 0.8, 26.87 0.93" stroke="#1e1e1e" stroke-width="2" fill="none"></path></g><g transform="translate(465.1025882003578 361.15763551842247) rotate(0 13.379646504371522 0.28929234162251305)"><path d="M14.06 4.79 C18.84 3.69, 23.61 1.16, 26.87 0.93 M14.06 4.79 C18.79 3.29, 23.85 2.11, 26.87 0.93" stroke="#1e1e1e" stroke-width="2" fill="none"></path></g><g transform="translate(465.1025882003578 361.15763551842247) rotate(0 13.379646504371522 0.28929234162251305)"><path d="M14.58 -4.35 C19.18 -1.94, 23.76 -0.96, 26.87 0.93 M14.58 -4.35 C19.07 -2.36, 23.93 -0.06, 26.87 0.93" stroke="#1e1e1e" stroke-width="2" fill="none"></path></g></g><mask></mask><g stroke-linecap="round"><g transform="translate(462.6757760327491 342.8596250639739) rotate(0 13.090429091885198 0.5432055320552536)"><path d="M-0.06 -0.44 C4.29 -0.14, 21.27 1.06, 25.7 1.31 M-0.75 0.53 C3.8 0.7, 22.17 0.27, 26.69 0.47" stroke="#1e1e1e" stroke-width="2" fill="none"></path></g><g transform="translate(462.6757760327491 342.8596250639739) rotate(0 13.090429091885198 0.5432055320552536)"><path d="M14.35 4.88 C16.66 3.31, 20.26 3.32, 26.69 0.47 M14.35 4.88 C18.09 3.7, 21.54 2.01, 26.69 0.47" stroke="#1e1e1e" stroke-width="2" fill="none"></path></g><g transform="translate(462.6757760327491 342.8596250639739) rotate(0 13.090429091885198 0.5432055320552536)"><path d="M14.4 -4.08 C16.66 -3.61, 20.25 -1.56, 26.69 0.47 M14.4 -4.08 C18.09 -2.57, 21.52 -1.57, 26.69 0.47" stroke="#1e1e1e" stroke-width="2" fill="none"></path></g></g><mask></mask><g stroke-linecap="round"><g transform="translate(465.4466698841625 335.41582698980255) rotate(0 12.382657058033146 0.22235582570920087)"><path d="M-0.03 -0.04 C4.07 -0.04, 20.8 -0.07, 24.96 0.03 M-0.71 -0.53 C3.31 -0.48, 20.4 0.23, 24.63 0.52" stroke="#1e1e1e" stroke-width="2" fill="none"></path></g><g transform="translate(465.4466698841625 335.41582698980255) rotate(0 12.382657058033146 0.22235582570920087)"><path d="M12.78 4.14 C17 3.06, 20.83 1.72, 24.63 0.52 M12.78 4.14 C16.41 2.99, 20.33 1.6, 24.63 0.52" stroke="#1e1e1e" stroke-width="2" fill="none"></path></g><g transform="translate(465.4466698841625 335.41582698980255) rotate(0 12.382657058033146 0.22235582570920087)"><path d="M13.23 -4.32 C17.29 -2.36, 20.96 -0.66, 24.63 0.52 M13.23 -4.32 C16.68 -2.75, 20.45 -1.42, 24.63 0.52" stroke="#1e1e1e" stroke-width="2" fill="none"></path></g></g><mask></mask><g stroke-linecap="round"><g transform="translate(319.25991350707136 104.99060443974213) rotate(0 13.361650884092342 0.30544132907061794)"><path d="M0.55 0.18 C4.95 0.38, 22.43 1.1, 26.77 1.1 M0.16 -0.21 C4.47 -0.13, 22.02 0.25, 26.37 0.38" stroke="#1e1e1e" stroke-width="2" fill="none"></path></g><g transform="translate(319.25991350707136 104.99060443974213) rotate(0 13.361650884092342 0.30544132907061794)"><path d="M13.7 4.64 C18.52 3.09, 23.5 1.35, 26.37 0.38 M13.7 4.64 C16.62 3.95, 19.39 2.6, 26.37 0.38" stroke="#1e1e1e" stroke-width="2" fill="none"></path></g><g transform="translate(319.25991350707136 104.99060443974213) rotate(0 13.361650884092342 0.30544132907061794)"><path d="M13.92 -4.5 C18.66 -2.73, 23.55 -1.14, 26.37 0.38 M13.92 -4.5 C16.79 -3.19, 19.51 -2.54, 26.37 0.38" stroke="#1e1e1e" stroke-width="2" fill="none"></path></g></g><mask></mask><g stroke-linecap="round"><g transform="translate(320.24966542441234 114.39324765447691) rotate(0 13.361650884092342 0.30544132907061794)"><path d="M0.05 0.48 C4.39 0.48, 22.19 0.15, 26.62 0.17 M-0.59 0.26 C3.63 0.3, 21.67 0.48, 26.13 0.64" stroke="#1e1e1e" stroke-width="2" fill="none"></path></g><g transform="translate(320.24966542441234 114.39324765447691) rotate(0 13.361650884092342 0.30544132907061794)"><path d="M13.48 4.95 C19.12 3.09, 23.04 1.33, 26.13 0.64 M13.48 4.95 C17.38 3.44, 20.87 2.55, 26.13 0.64" stroke="#1e1e1e" stroke-width="2" fill="none"></path></g><g transform="translate(320.24966542441234 114.39324765447691) rotate(0 13.361650884092342 0.30544132907061794)"><path d="M13.67 -4.19 C19.24 -2.4, 23.09 -0.51, 26.13 0.64 M13.67 -4.19 C17.53 -2.97, 20.97 -1.14, 26.13 0.64" stroke="#1e1e1e" stroke-width="2" fill="none"></path></g></g><mask></mask><g stroke-linecap="round"><g transform="translate(317.2804096723894 96.08283718368239) rotate(0 13.361650884092342 0.30544132907061794)"><path d="M-0.11 -0.44 C4.32 -0.42, 22.08 0.36, 26.59 0.6 M-0.82 0.52 C3.51 0.86, 21.49 1.36, 26.08 1.29" stroke="#1e1e1e" stroke-width="2" fill="none"></path></g><g transform="translate(317.2804096723894 96.08283718368239) rotate(0 13.361650884092342 0.30544132907061794)"><path d="M13.48 5.73 C16.81 4.21, 21.23 3.28, 26.08 1.29 M13.48 5.73 C18.02 4.33, 22.94 2.75, 26.08 1.29" stroke="#1e1e1e" stroke-width="2" fill="none"></path></g><g transform="translate(317.2804096723894 96.08283718368239) rotate(0 13.361650884092342 0.30544132907061794)"><path d="M13.58 -3.41 C16.92 -2.11, 21.31 -0.21, 26.08 1.29 M13.58 -3.41 C18.1 -1.41, 22.99 0.42, 26.08 1.29" stroke="#1e1e1e" stroke-width="2" fill="none"></path></g></g><mask></mask><g stroke-linecap="round"><g transform="translate(319.75478946574094 87.17506992762083) rotate(0 13.361650884092342 0.30544132907061794)"><path d="M-0.14 -0.01 C4.37 0.23, 22.44 0.96, 26.95 1.01 M0.79 -0.49 C5.26 -0.36, 22.32 0.04, 26.64 0.25" stroke="#1e1e1e" stroke-width="2" fill="none"></path></g><g transform="translate(319.75478946574094 87.17506992762083) rotate(0 13.361650884092342 0.30544132907061794)"><path d="M13.93 4.39 C17.51 3.52, 21.57 2.35, 26.64 0.25 M13.93 4.39 C17.16 3.62, 20.36 2.56, 26.64 0.25" stroke="#1e1e1e" stroke-width="2" fill="none"></path></g><g transform="translate(319.75478946574094 87.17506992762083) rotate(0 13.361650884092342 0.30544132907061794)"><path d="M14.25 -4.75 C17.69 -3.05, 21.67 -1.66, 26.64 0.25 M14.25 -4.75 C17.38 -3.26, 20.5 -2.06, 26.64 0.25" stroke="#1e1e1e" stroke-width="2" fill="none"></path></g></g><mask></mask><g stroke-linecap="round"><g transform="translate(374.2519284247928 383.94069555379247) rotate(0 13.361650884092342 0.30544132907061794)"><path d="M0.23 -0.41 C4.7 -0.39, 22.34 0.48, 26.81 0.66 M-0.32 0.56 C4.08 0.92, 21.89 1.27, 26.42 1.38" stroke="#1e1e1e" stroke-width="2" fill="none"></path></g><g transform="translate(374.2519284247928 383.94069555379247) rotate(0 13.361650884092342 0.30544132907061794)"><path d="M13.76 5.67 C17.05 4.45, 21.42 3.45, 26.42 1.38 M13.76 5.67 C17.3 4.29, 21.4 3.34, 26.42 1.38" stroke="#1e1e1e" stroke-width="2" fill="none"></path></g><g transform="translate(374.2519284247928 383.94069555379247) rotate(0 13.361650884092342 0.30544132907061794)"><path d="M13.97 -3.47 C17.24 -1.94, 21.55 -0.18, 26.42 1.38 M13.97 -3.47 C17.41 -2.09, 21.44 -0.28, 26.42 1.38" stroke="#1e1e1e" stroke-width="2" fill="none"></path></g></g><mask></mask><g transform="translate(367.6263690206197 91.90331196333591) rotate(0 15.175000190734863 10)"><text x="0" y="14.016" font-family="Virgil, Segoe UI Emoji" font-size="16px" fill="#1e1e1e" text-anchor="start" style="white-space: pre;" direction="ltr" dominant-baseline="alphabetic">lang</text></g><g stroke-linecap="round"><g transform="translate(303.6697829254508 224.03642466752626) rotate(0 13.361650884092342 0.30544132907061794)"><path d="M-0.21 -0.29 C4.28 -0.21, 21.96 0.71, 26.47 0.92 M0.69 0.75 C5.12 0.64, 21.59 0.22, 25.91 0.11" stroke="#1e1e1e" stroke-width="2" fill="none"></path></g><g transform="translate(303.6697829254508 224.03642466752626) rotate(0 13.361650884092342 0.30544132907061794)"><path d="M13.47 5 C15.78 3.66, 19.2 3.11, 25.91 0.11 M13.47 5 C17.93 3.28, 22.26 1.76, 25.91 0.11" stroke="#1e1e1e" stroke-width="2" fill="none"></path></g><g transform="translate(303.6697829254508 224.03642466752626) rotate(0 13.361650884092342 0.30544132907061794)"><path d="M13.24 -4.14 C15.63 -3.5, 19.1 -2.09, 25.91 0.11 M13.24 -4.14 C17.74 -2.55, 22.16 -0.76, 25.91 0.11" stroke="#1e1e1e" stroke-width="2" fill="none"></path></g></g><mask></mask><g stroke-linecap="round"><g transform="translate(304.6595348427936 233.43906788226286) rotate(0 13.361650884092342 0.30544132907061794)"><path d="M-0.25 0.31 C4.26 0.51, 22.46 0.87, 26.88 0.95 M0.62 -0.01 C5.09 0.06, 22.07 0.2, 26.54 0.16" stroke="#1e1e1e" stroke-width="2" fill="none"></path></g><g transform="translate(304.6595348427936 233.43906788226286) rotate(0 13.361650884092342 0.30544132907061794)"><path d="M13.97 4.72 C17.65 3.75, 20.99 1.86, 26.54 0.16 M13.97 4.72 C17.88 3.52, 21.96 1.43, 26.54 0.16" stroke="#1e1e1e" stroke-width="2" fill="none"></path></g><g transform="translate(304.6595348427936 233.43906788226286) rotate(0 13.361650884092342 0.30544132907061794)"><path d="M13.98 -4.43 C17.63 -3, 20.97 -2.49, 26.54 0.16 M13.98 -4.43 C17.87 -2.61, 21.95 -1.68, 26.54 0.16" stroke="#1e1e1e" stroke-width="2" fill="none"></path></g></g><mask></mask><g stroke-linecap="round"><g transform="translate(301.69027909076885 215.12865741146652) rotate(0 13.361650884092342 0.30544132907061794)"><path d="M0.16 0.34 C4.59 0.42, 21.9 0.71, 26.31 0.77 M-0.42 0.04 C4.2 -0.08, 22.9 -0.33, 27.33 -0.11" stroke="#1e1e1e" stroke-width="2" fill="none"></path></g><g transform="translate(301.69027909076885 215.12865741146652) rotate(0 13.361650884092342 0.30544132907061794)"><path d="M14.72 4.31 C18.33 2.66, 21.31 1.9, 27.33 -0.11 M14.72 4.31 C18.47 2.56, 23.02 1.27, 27.33 -0.11" stroke="#1e1e1e" stroke-width="2" fill="none"></path></g><g transform="translate(301.69027909076885 215.12865741146652) rotate(0 13.361650884092342 0.30544132907061794)"><path d="M14.83 -4.84 C18.44 -4.15, 21.39 -2.59, 27.33 -0.11 M14.83 -4.84 C18.52 -3.65, 23.03 -2.03, 27.33 -0.11" stroke="#1e1e1e" stroke-width="2" fill="none"></path></g></g><mask></mask><g stroke-linecap="round"><g transform="translate(304.1646588841204 206.22089015540678) rotate(0 13.361650884092342 0.30544132907061794)"><path d="M-0.41 0.16 C4 0.22, 22.15 0.56, 26.61 0.72 M0.38 -0.23 C4.69 -0.37, 21.61 -0.29, 26.12 -0.19" stroke="#1e1e1e" stroke-width="2" fill="none"></path></g><g transform="translate(304.1646588841204 206.22089015540678) rotate(0 13.361650884092342 0.30544132907061794)"><path d="M13.51 4.24 C17.84 2.69, 21.93 0.89, 26.12 -0.19 M13.51 4.24 C18.73 2.38, 23.26 0.99, 26.12 -0.19" stroke="#1e1e1e" stroke-width="2" fill="none"></path></g><g transform="translate(304.1646588841204 206.22089015540678) rotate(0 13.361650884092342 0.30544132907061794)"><path d="M13.61 -4.91 C17.94 -3.45, 21.99 -2.23, 26.12 -0.19 M13.61 -4.91 C18.76 -3.14, 23.24 -0.92, 26.12 -0.19" stroke="#1e1e1e" stroke-width="2" fill="none"></path></g></g><mask></mask><g transform="translate(352.03623843900004 210.94913219112186) rotate(0 15.175000190734863 10)"><text x="0" y="14.016" font-family="Virgil, Segoe UI Emoji" font-size="16px" fill="#1e1e1e" text-anchor="start" style="white-space: pre;" direction="ltr" dominant-baseline="alphabetic">lang</text></g></svg>