<svg version="1.1" xmlns="http://www.w3.org/2000/svg" viewBox="0 0 1428.4716996686948 443.72687938671424" width="1428.4716996686948" height="443.72687938671424">
  <!-- svg-source:excalidraw -->
  
  <defs>
    <style class="style-fonts">
      @font-face {
        font-family: "Virgil";
        src: url("https://excalidraw.com/Virgil.woff2");
      }
      @font-face {
        font-family: "Cascadia";
        src: url("https://excalidraw.com/Cascadia.woff2");
      }
      @font-face {
        font-family: "Assistant";
        src: url("https://excalidraw.com/Assistant-Regular.woff2");
      }
    </style>
    
  </defs>
  <rect x="0" y="0" width="1428.4716996686948" height="443.72687938671424" fill="#ffffff"></rect><g stroke-linecap="round" transform="translate(213.39123634110274 54.22218395971231) rotate(0 52.65881103702577 28.782455722101076)"><path d="M14.39 0 C41.09 0.64, 72.04 2.13, 90.93 0 M14.39 0 C40.18 -0.25, 66.81 0.75, 90.93 0 M90.93 0 C101.24 1.57, 103.55 4.1, 105.32 14.39 M90.93 0 C102.65 -1.1, 103.12 4.09, 105.32 14.39 M105.32 14.39 C104.02 25.73, 105.55 34.29, 105.32 43.17 M105.32 14.39 C104.78 21.87, 104.7 27.55, 105.32 43.17 M105.32 43.17 C105.41 53.2, 98.84 56.5, 90.93 57.56 M105.32 43.17 C103.09 50.65, 100.1 56.77, 90.93 57.56 M90.93 57.56 C60.73 56.36, 33.3 57.07, 14.39 57.56 M90.93 57.56 C69.47 58.13, 49.95 57.64, 14.39 57.56 M14.39 57.56 C3.04 58.73, 0.74 50.95, 0 43.17 M14.39 57.56 C5.85 58.33, 0.31 51.7, 0 43.17 M0 43.17 C-1.33 35.2, 1.09 24.12, 0 14.39 M0 43.17 C0.61 33.83, -0.52 23.17, 0 14.39 M0 14.39 C1.38 5.2, 6.57 0.51, 14.39 0 M0 14.39 C2.2 6.83, 4.65 -1.74, 14.39 0" stroke="#1e1e1e" stroke-width="2" fill="none"></path></g><g transform="translate(248.22504661518906 73.00463968181339) rotate(0 17.825000762939453 10)"><text x="17.825000762939453" y="14.016" font-family="Virgil, Segoe UI Emoji" font-size="16px" fill="#1e1e1e" text-anchor="middle" style="white-space: pre;" direction="ltr" dominant-baseline="alphabetic">home</text></g><g stroke-linecap="round" transform="translate(426.97014073351056 56.83877084353935) rotate(0 52.65881103702577 28.782455722101076)"><path d="M14.39 0 C36.96 -1.26, 59.73 1.95, 90.93 0 M14.39 0 C36.11 0.25, 57.21 0.43, 90.93 0 M90.93 0 C101.31 -0.75, 107.31 5.18, 105.32 14.39 M90.93 0 C101.73 -1.84, 107.38 3.01, 105.32 14.39 M105.32 14.39 C105.95 19.53, 104.44 26.3, 105.32 43.17 M105.32 14.39 C105.75 23.34, 106.4 30.85, 105.32 43.17 M105.32 43.17 C106.38 51.85, 99.83 56.26, 90.93 57.56 M105.32 43.17 C106.37 50.97, 100.83 59.07, 90.93 57.56 M90.93 57.56 C67.1 57.41, 46.69 57.1, 14.39 57.56 M90.93 57.56 C74.35 55.95, 59.55 57.57, 14.39 57.56 M14.39 57.56 C3.83 58.28, -1.77 53.84, 0 43.17 M14.39 57.56 C4.01 55.91, -1.61 53.6, 0 43.17 M0 43.17 C-1.07 35.6, -0.76 27.96, 0 14.39 M0 43.17 C-0.92 35.76, 0.22 25.92, 0 14.39 M0 14.39 C-1.32 5.42, 4.38 0.06, 14.39 0 M0 14.39 C-1.09 5.17, 3.29 0.09, 14.39 0" stroke="#1e1e1e" stroke-width="2" fill="none"></path></g><g transform="translate(460.945619327299 75.62122656564043) rotate(0 18.683332443237305 10)"><text x="18.683332443237305" y="14.016" font-family="Virgil, Segoe UI Emoji" font-size="16px" fill="#1e1e1e" text-anchor="middle" style="white-space: pre;" direction="ltr" dominant-baseline="alphabetic">maps</text></g><g stroke-linecap="round" transform="translate(644.1468520911794 57.492917564495656) rotate(0 52.65881103702577 28.782455722101076)"><path d="M14.39 0 C33.09 -2.14, 55.8 0.84, 90.93 0 M14.39 0 C37.47 0.6, 58.39 0.53, 90.93 0 M90.93 0 C101.12 -0.23, 103.91 3.99, 105.32 14.39 M90.93 0 C100.19 0.63, 105.5 3.86, 105.32 14.39 M105.32 14.39 C103.47 25.22, 106.34 35.27, 105.32 43.17 M105.32 14.39 C105.06 21.18, 105.14 28.63, 105.32 43.17 M105.32 43.17 C104.36 53.64, 99.53 58.33, 90.93 57.56 M105.32 43.17 C105.15 51.54, 99.41 55.34, 90.93 57.56 M90.93 57.56 C72.28 57.33, 52.06 57.51, 14.39 57.56 M90.93 57.56 C64.99 57.86, 38.98 59.03, 14.39 57.56 M14.39 57.56 C5.93 59.5, -1.33 51.59, 0 43.17 M14.39 57.56 C6.82 57.13, -0.32 54.71, 0 43.17 M0 43.17 C0.95 37.28, 1.62 27.66, 0 14.39 M0 43.17 C-0.69 36.1, -0.07 26.9, 0 14.39 M0 14.39 C-0.02 4.3, 3.94 1.51, 14.39 0 M0 14.39 C0.36 4.16, 4.03 0.84, 14.39 0" stroke="#1e1e1e" stroke-width="2" fill="none"></path></g><g transform="translate(662.0806646540841 76.27537328659673) rotate(0 34.724998474121094 10)"><text x="34.724998474121094" y="14.016" font-family="Virgil, Segoe UI Emoji" font-size="16px" fill="#1e1e1e" text-anchor="middle" style="white-space: pre;" direction="ltr" dominant-baseline="alphabetic">avontuur</text></g><g stroke-linecap="round"><g transform="translate(320.0171518570678 56.83877084353935) rotate(0 53.64003111846068 -6.214393849089447)"><path d="M-0.78 1.06 C9.38 -1.54, 43.55 -15.38, 61.51 -15.11 C79.48 -14.84, 99.28 -0.4, 107.02 2.69 M1.01 0.57 C11.03 -1.87, 43.4 -14.19, 60.92 -13.61 C78.44 -13.03, 98.17 1.56, 106.11 4.04" stroke="#1e1e1e" stroke-width="2" fill="none"></path></g><g transform="translate(320.0171518570678 56.83877084353935) rotate(0 53.64003111846068 -6.214393849089447)"><path d="M81.39 1.56 C91.67 3.7, 98.31 2.99, 106.11 4.04 M81.39 1.56 C89.13 1.49, 95.89 1.92, 106.11 4.04" stroke="#1e1e1e" stroke-width="2" fill="none"></path></g><g transform="translate(320.0171518570678 56.83877084353935) rotate(0 53.64003111846068 -6.214393849089447)"><path d="M88.77 -13.75 C96.57 -6.38, 100.67 -1.83, 106.11 4.04 M88.77 -13.75 C94.34 -9.09, 98.85 -3.98, 106.11 4.04" stroke="#1e1e1e" stroke-width="2" fill="none"></path></g></g><mask></mask><g stroke-linecap="round"><g transform="translate(305.62592399601726 47.68071675014471) rotate(0 174.00302777451907 -12.428787698180713)"><path d="M-0.63 0.43 C29.67 -5.81, 122.43 -39.34, 180.61 -37.62 C238.8 -35.89, 320.65 2.69, 348.49 10.8 M1.24 -0.38 C31.49 -6.49, 121.92 -38.59, 179.7 -36.6 C237.49 -34.6, 319.98 3.55, 347.97 11.6" stroke="#1e1e1e" stroke-width="2" fill="none"></path></g><g transform="translate(305.62592399601726 47.68071675014471) rotate(0 174.00302777451907 -12.428787698180713)"><path d="M322.97 11.7 C328.71 11.93, 331.37 12.59, 347.97 11.6 M322.97 11.7 C328.18 12.53, 334.32 11.65, 347.97 11.6" stroke="#1e1e1e" stroke-width="2" fill="none"></path></g><g transform="translate(305.62592399601726 47.68071675014471) rotate(0 174.00302777451907 -12.428787698180713)"><path d="M328.76 -4.39 C333.32 -0.97, 334.81 2.93, 347.97 11.6 M328.76 -4.39 C332.65 -0.08, 337.52 2.56, 347.97 11.6" stroke="#1e1e1e" stroke-width="2" fill="none"></path></g></g><mask></mask><g stroke-linecap="round"><g transform="translate(644.4739254516599 115.05782900869781) rotate(0 -57.891984804680305 1.9624401628711894)"><path d="M-0.64 0.9 C-10.37 3.19, -38.14 15.94, -57.52 14.34 C-76.91 12.74, -107.1 -4.85, -116.96 -8.71 M1.23 0.33 C-8.73 2.21, -39.13 14.33, -58.45 12.53 C-77.77 10.73, -104.93 -6.57, -114.68 -10.48" stroke="#1e1e1e" stroke-width="2" fill="none"></path></g><g transform="translate(644.4739254516599 115.05782900869781) rotate(0 -57.891984804680305 1.9624401628711894)"><path d="M-89.84 -7.69 C-97.57 -8.79, -107.31 -11.85, -114.68 -10.48 M-89.84 -7.69 C-100.04 -8.83, -108.82 -10.22, -114.68 -10.48" stroke="#1e1e1e" stroke-width="2" fill="none"></path></g><g transform="translate(644.4739254516599 115.05782900869781) rotate(0 -57.891984804680305 1.9624401628711894)"><path d="M-97.44 7.63 C-102.44 0.88, -109.35 -7.87, -114.68 -10.48 M-97.44 7.63 C-104.55 0.43, -110.35 -6.96, -114.68 -10.48" stroke="#1e1e1e" stroke-width="2" fill="none"></path></g></g><mask></mask><g stroke-linecap="round"><g transform="translate(429.2596542568599 113.74953556678429) rotate(0 -54.94832456037466 3.9248803257414693)"><path d="M-0.52 0.71 C-9.8 2.72, -36.37 14.03, -54.47 13.09 C-72.57 12.15, -100 -1.95, -109.1 -4.94 M1.41 0.04 C-8.14 2.72, -37.03 15.43, -55.51 14.29 C-73.98 13.15, -100.63 -3.26, -109.44 -6.78" stroke="#1e1e1e" stroke-width="2" fill="none"></path></g><g transform="translate(429.2596542568599 113.74953556678429) rotate(0 -54.94832456037466 3.9248803257414693)"><path d="M-84.58 -4.15 C-93.35 -5.6, -105.55 -5.03, -109.44 -6.78 M-84.58 -4.15 C-93.7 -4.69, -104 -5.31, -109.44 -6.78" stroke="#1e1e1e" stroke-width="2" fill="none"></path></g><g transform="translate(429.2596542568599 113.74953556678429) rotate(0 -54.94832456037466 3.9248803257414693)"><path d="M-92.09 11.22 C-97.99 3.66, -107.18 -1.91, -109.44 -6.78 M-92.09 11.22 C-98.47 4.78, -105.92 -1.67, -109.44 -6.78" stroke="#1e1e1e" stroke-width="2" fill="none"></path></g></g><mask></mask><g stroke-linecap="round"><g transform="translate(542.4270369823926 67.30511837884933) rotate(0 53.31295775798253 -2.6165868838274946)"><path d="M0.49 0.69 C7.51 -1.63, 25.39 -14.49, 43.24 -13.26 C61.1 -12.02, 96.99 4.4, 107.61 8.11 M-0.71 0.01 C6.61 -2.18, 27.64 -13.4, 45.65 -11.81 C63.66 -10.22, 97.07 6.42, 107.36 9.57" stroke="#1e1e1e" stroke-width="2" fill="none"></path></g><g transform="translate(542.4270369823926 67.30511837884933) rotate(0 53.31295775798253 -2.6165868838274946)"><path d="M82.37 8.9 C93.36 8.09, 101.74 10.97, 107.36 9.57 M82.37 8.9 C89.5 8.91, 97.8 8.32, 107.36 9.57" stroke="#1e1e1e" stroke-width="2" fill="none"></path></g><g transform="translate(542.4270369823926 67.30511837884933) rotate(0 53.31295775798253 -2.6165868838274946)"><path d="M88.65 -7.01 C97.25 -1.54, 103.17 7.6, 107.36 9.57 M88.65 -7.01 C93.8 -1.81, 100.08 2.71, 107.36 9.57" stroke="#1e1e1e" stroke-width="2" fill="none"></path></g></g><mask></mask><g stroke-linecap="round"><g transform="translate(662.1358869174946 123.56173638113705) rotate(0 -197.225236368487 14.064154500572386)"><path d="M0.78 1.06 C-31.15 7.8, -125.76 41.64, -191.53 39.5 C-257.3 37.36, -359.83 -3.33, -393.82 -11.76 M-0.27 0.56 C-31.86 7.56, -123.77 42.66, -189.43 40.83 C-255.1 38.99, -359.87 -1.42, -394.26 -10.44" stroke="#1e1e1e" stroke-width="2" fill="none"></path></g><g transform="translate(662.1358869174946 123.56173638113705) rotate(0 -197.225236368487 14.064154500572386)"><path d="M-369.29 -11.58 C-375.16 -13.02, -385.22 -9.68, -394.26 -10.44 M-369.29 -11.58 C-377.55 -11.73, -384.71 -11.68, -394.26 -10.44" stroke="#1e1e1e" stroke-width="2" fill="none"></path></g><g transform="translate(662.1358869174946 123.56173638113705) rotate(0 -197.225236368487 14.064154500572386)"><path d="M-374.39 4.74 C-378.58 -1.72, -387.08 -3.36, -394.26 -10.44 M-374.39 4.74 C-380.98 -0.35, -386.6 -5.22, -394.26 -10.44" stroke="#1e1e1e" stroke-width="2" fill="none"></path></g></g><mask></mask><g stroke-linecap="round" transform="translate(437.6613813648755 295.345145191297) rotate(0 50.36929751367643 28.782455722101076)"><path d="M14.39 0 C37.91 -0.91, 57.02 1.38, 86.35 0 M14.39 0 C40.95 -0.04, 68.92 -0.23, 86.35 0 M86.35 0 C94.51 0.62, 99.77 5, 100.74 14.39 M86.35 0 C98.07 -2.07, 101.95 5.98, 100.74 14.39 M100.74 14.39 C102.13 24.9, 101.51 36.43, 100.74 43.17 M100.74 14.39 C101.78 23.86, 100.22 31.07, 100.74 43.17 M100.74 43.17 C102.66 53.4, 95.82 58.49, 86.35 57.56 M100.74 43.17 C102.01 55, 97.31 58.72, 86.35 57.56 M86.35 57.56 C61.22 58.26, 35.19 59.34, 14.39 57.56 M86.35 57.56 C70.08 58.4, 55.4 58.19, 14.39 57.56 M14.39 57.56 C3.13 59.54, 0.16 51.02, 0 43.17 M14.39 57.56 C5.03 55.69, -1.2 54.1, 0 43.17 M0 43.17 C-0.91 32.45, -0.31 26.3, 0 14.39 M0 43.17 C0.41 33.53, 0.19 22.8, 0 14.39 M0 14.39 C1.93 6.27, 6.67 -1.89, 14.39 0 M0 14.39 C-2.21 4.08, 4.11 0.25, 14.39 0" stroke="#1e1e1e" stroke-width="2" fill="none"></path></g><g transform="translate(462.98901284766816 314.12760091339806) rotate(0 25.04166603088379 10)"><text x="25.04166603088379" y="14.016" font-family="Virgil, Segoe UI Emoji" font-size="16px" fill="#1e1e1e" text-anchor="middle" style="white-space: pre;" direction="ltr" dominant-baseline="alphabetic">main.js</text></g><g stroke-linecap="round" transform="translate(10 282.62064796504455) rotate(0 52.00466431606901 25.511722117316822)"><path d="M12.76 0 C27.79 -1.24, 45.08 -0.8, 91.25 0 M12.76 0 C34.95 0.52, 56.79 0.29, 91.25 0 M91.25 0 C98.45 -0.12, 104.02 2.47, 104.01 12.76 M91.25 0 C97.82 -1.27, 104.68 5.79, 104.01 12.76 M104.01 12.76 C102.81 18.53, 105.4 23.09, 104.01 38.27 M104.01 12.76 C104.22 22.39, 103.93 33.07, 104.01 38.27 M104.01 38.27 C102.73 48.63, 99.42 51.88, 91.25 51.02 M104.01 38.27 C103.36 46.09, 99.05 52.3, 91.25 51.02 M91.25 51.02 C62.95 50, 34.4 52.78, 12.76 51.02 M91.25 51.02 C73.83 49.42, 55.95 50.65, 12.76 51.02 M12.76 51.02 C3.32 52.01, -1.91 45.41, 0 38.27 M12.76 51.02 C5.49 50.95, -1.88 46.82, 0 38.27 M0 38.27 C0.01 28.93, 0.36 20.57, 0 12.76 M0 38.27 C0.03 29, 0.36 20.28, 0 12.76 M0 12.76 C0.96 3.39, 5.36 -1.12, 12.76 0 M0 12.76 C-1.71 2.4, 3.29 -0.27, 12.76 0" stroke="#1e1e1e" stroke-width="2" fill="none"></path></g><g transform="translate(25.271330728422072 298.1323700823614) rotate(0 36.733333587646484 10)"><text x="36.733333587646484" y="14.016" font-family="Virgil, Segoe UI Emoji" font-size="16px" fill="#1e1e1e" text-anchor="middle" style="white-space: pre;" direction="ltr" dominant-baseline="alphabetic">index.html</text></g><g stroke-linecap="round" transform="translate(146.90189262805234 336.56055781906616) rotate(0 44.660296869595186 15.087938131619921)"><path d="M7.54 0 C32.73 1.48, 56.89 2.22, 81.78 0 M7.54 0 C35.08 0.48, 60.44 -0.48, 81.78 0 M81.78 0 C88.65 -0.11, 89.96 4.48, 89.32 7.54 M81.78 0 C89.01 -1.25, 88.02 1.85, 89.32 7.54 M89.32 7.54 C88.09 12.26, 87.9 14.49, 89.32 22.63 M89.32 7.54 C89.2 13.27, 90.03 16.93, 89.32 22.63 M89.32 22.63 C89.67 28.8, 85.04 29.27, 81.78 30.18 M89.32 22.63 C89.13 27.92, 86.5 28.33, 81.78 30.18 M81.78 30.18 C67.55 29.46, 50.88 28.84, 7.54 30.18 M81.78 30.18 C61.87 30.18, 42.56 30.23, 7.54 30.18 M7.54 30.18 C2.06 28.26, 1.43 26.59, 0 22.63 M7.54 30.18 C3.17 31.49, -0.51 26.69, 0 22.63 M0 22.63 C-1.48 19.22, 0.72 17.6, 0 7.54 M0 22.63 C0.76 18.08, 0.44 13.8, 0 7.54 M0 7.54 C-1.2 3.43, 3.71 -1.87, 7.54 0 M0 7.54 C-0.5 4.73, 1.5 -1.53, 7.54 0" stroke="#1e1e1e" stroke-width="2" fill="none"></path></g><g transform="translate(167.61218873470807 341.6484959506861) rotate(0 23.950000762939453 10)"><text x="23.950000762939453" y="14.016" font-family="Virgil, Segoe UI Emoji" font-size="16px" fill="#1e1e1e" text-anchor="middle" style="white-space: pre;" direction="ltr" dominant-baseline="alphabetic">onclick</text></g><g stroke-linecap="round" transform="translate(143.28078747646487 265.9490073630841) rotate(0 93.54521641604424 18.101509292585888)"><path d="M9.05 0 C47.05 -1.75, 82.52 -2.53, 178.04 0 M9.05 0 C63.51 0.88, 116.94 0.56, 178.04 0 M178.04 0 C184.52 0.28, 186.03 3.17, 187.09 9.05 M178.04 0 C185.69 0.18, 189.18 3.18, 187.09 9.05 M187.09 9.05 C185.78 13.13, 185.93 18.93, 187.09 27.15 M187.09 9.05 C187 13.45, 186.04 18.52, 187.09 27.15 M187.09 27.15 C188.61 33.65, 186.03 34.39, 178.04 36.2 M187.09 27.15 C187.15 34.6, 185.81 34.17, 178.04 36.2 M178.04 36.2 C119.83 35.07, 64.46 38.35, 9.05 36.2 M178.04 36.2 C127.41 34.27, 77.28 34.72, 9.05 36.2 M9.05 36.2 C1.15 37.06, 0.76 33.75, 0 27.15 M9.05 36.2 C4.3 36.82, -0.79 35.06, 0 27.15 M0 27.15 C-1.27 21.2, -0.24 15.06, 0 9.05 M0 27.15 C-0.9 20, -0.16 14.78, 0 9.05 M0 9.05 C-1.07 4.19, 1.95 0.1, 9.05 0 M0 9.05 C0.07 4.33, 2.34 0.82, 9.05 0" stroke="#1e1e1e" stroke-width="2" fill="none"></path></g><g transform="translate(160.15933976897395 274.0505166556695) rotate(0 76.66666412353516 10)"><text x="76.66666412353516" y="14.016" font-family="Virgil, Segoe UI Emoji" font-size="16px" fill="#1e1e1e" text-anchor="middle" style="white-space: pre;" direction="ltr" dominant-baseline="alphabetic">DOMContentLoaded</text></g><g stroke-linecap="round" transform="translate(646.6144035472953 293.1072960000156) rotate(0 73.62913808230587 27.761806162181074)"><path d="M13.88 0 C47.61 0.05, 81.84 1.15, 133.38 0 M13.88 0 C60.44 -0.23, 108.81 0.47, 133.38 0 M133.38 0 C141.33 -1.15, 146.68 4.44, 147.26 13.88 M133.38 0 C141.57 1.99, 146.57 4.05, 147.26 13.88 M147.26 13.88 C145.54 21.35, 147.65 24.76, 147.26 41.64 M147.26 13.88 C146.65 23.97, 147.6 33.74, 147.26 41.64 M147.26 41.64 C145.71 52.08, 144.43 57.18, 133.38 55.52 M147.26 41.64 C148.23 48.73, 140.56 54.56, 133.38 55.52 M133.38 55.52 C94.67 56.9, 54.79 56.27, 13.88 55.52 M133.38 55.52 C90.14 55.46, 47.39 56.12, 13.88 55.52 M13.88 55.52 C5.39 55.58, -1.17 51.53, 0 41.64 M13.88 55.52 C4.8 55.1, -1.34 49.4, 0 41.64 M0 41.64 C1.04 32.42, -0.01 24.32, 0 13.88 M0 41.64 C0.71 34.52, 0.15 27.22, 0 13.88 M0 13.88 C1.38 6.17, 5.99 1.78, 13.88 0 M0 13.88 C-0.21 3.92, 5.76 0.5, 13.88 0" stroke="#1e1e1e" stroke-width="2" fill="none"></path></g><g transform="translate(665.4102095678336 310.8691021621962) rotate(0 54.83333206176758 10)"><text x="54.83333206176758" y="14.016" font-family="Virgil, Segoe UI Emoji" font-size="16px" fill="#1e1e1e" text-anchor="middle" style="white-space: pre;" direction="ltr" dominant-baseline="alphabetic">StateContext</text></g><g transform="translate(824.6588536076815 315.4866599354673) rotate(0 44.04999923706055 10)"><text x="0" y="14.016" font-family="Virgil, Segoe UI Emoji" font-size="16px" fill="#1e1e1e" text-anchor="start" style="white-space: pre;" direction="ltr" dominant-baseline="alphabetic">enterState</text></g><g stroke-linecap="round" transform="translate(960.4435166849926 223.0992630692981) rotate(0 49.48843707171363 22.330148434798048)"><path d="M11.17 0 C26.27 -0.12, 46.11 -1.32, 87.81 0 M11.17 0 C40.01 -0.66, 68.87 -0.89, 87.81 0 M87.81 0 C96.15 0.51, 100.75 3.34, 98.98 11.17 M87.81 0 C96.19 -0.59, 98.17 1.68, 98.98 11.17 M98.98 11.17 C99.18 20.73, 97.5 28.95, 98.98 33.5 M98.98 11.17 C98.74 16.2, 99.16 21.76, 98.98 33.5 M98.98 33.5 C97.32 40.23, 96.24 44.12, 87.81 44.66 M98.98 33.5 C97.9 42.26, 93.25 45.42, 87.81 44.66 M87.81 44.66 C70.25 42.69, 50.46 43.54, 11.17 44.66 M87.81 44.66 C65.92 43.75, 45.18 44.84, 11.17 44.66 M11.17 44.66 C2.47 46.12, 1.42 42.78, 0 33.5 M11.17 44.66 C1.54 46.29, 1.69 38.68, 0 33.5 M0 33.5 C-1.24 28.25, -1.57 22.02, 0 11.17 M0 33.5 C0.39 28.69, -0.6 22.96, 0 11.17 M0 11.17 C-0.74 3.63, 2.55 -0.85, 11.17 0 M0 11.17 C1.31 5.17, 4.3 1.18, 11.17 0" stroke="#1e1e1e" stroke-width="2" fill="none"></path></g><g transform="translate(968.0402873443527 235.4294115040957) rotate(0 41.891666412353516 10)"><text x="41.891666412353516" y="14.016" font-family="Virgil, Segoe UI Emoji" font-size="16px" fill="#1e1e1e" text-anchor="middle" style="white-space: pre;" direction="ltr" dominant-baseline="alphabetic">HomeState</text></g><g stroke-linecap="round" transform="translate(962.8575867860509 302.1600588789888) rotate(0 49.48843707171363 22.330148434798048)"><path d="M11.17 0 C28.52 -0.27, 46.06 -0.8, 87.81 0 M11.17 0 C37.9 0.32, 63.88 1.43, 87.81 0 M87.81 0 C95.78 -0.93, 97.41 1.81, 98.98 11.17 M87.81 0 C97.53 0.74, 100.3 3.89, 98.98 11.17 M98.98 11.17 C97.33 15.07, 100.29 19.11, 98.98 33.5 M98.98 11.17 C99.61 18.75, 98.12 26.1, 98.98 33.5 M98.98 33.5 C100.37 39.34, 95.77 43.12, 87.81 44.66 M98.98 33.5 C98.59 42.34, 93.85 45.31, 87.81 44.66 M87.81 44.66 C62.72 46.16, 38.46 44.57, 11.17 44.66 M87.81 44.66 C69.22 45.4, 49.75 45.39, 11.17 44.66 M11.17 44.66 C3.59 44.94, -0.42 40.05, 0 33.5 M11.17 44.66 C3.56 42.87, 2.25 40.15, 0 33.5 M0 33.5 C-0.93 25.23, 0.48 19.32, 0 11.17 M0 33.5 C-0.47 26.9, 1.06 21.27, 0 11.17 M0 11.17 C-0.07 3.22, 4.54 0.54, 11.17 0 M0 11.17 C-2.19 3.09, 5.65 -1.15, 11.17 0" stroke="#1e1e1e" stroke-width="2" fill="none"></path></g><g transform="translate(973.3376887442391 314.4902073137873) rotate(0 39.00833511352539 10)"><text x="39.00833511352539" y="14.016" font-family="Virgil, Segoe UI Emoji" font-size="16px" fill="#1e1e1e" text-anchor="middle" style="white-space: pre;" direction="ltr" dominant-baseline="alphabetic">MapState</text></g><g stroke-linecap="round" transform="translate(967.6857269881702 389.06658251711815) rotate(0 49.48843707171363 22.330148434798048)"><path d="M11.17 0 C36.86 0.45, 66.94 0.49, 87.81 0 M11.17 0 C27.01 0.23, 43.01 -1.42, 87.81 0 M87.81 0 C94.69 -1.16, 97.55 4.31, 98.98 11.17 M87.81 0 C95.84 1.2, 97.13 4.21, 98.98 11.17 M98.98 11.17 C99.46 18.57, 99.35 25.71, 98.98 33.5 M98.98 11.17 C98.21 15.19, 98.34 20.87, 98.98 33.5 M98.98 33.5 C98.78 40.69, 96.02 45.36, 87.81 44.66 M98.98 33.5 C99.45 41.51, 95.59 46.44, 87.81 44.66 M87.81 44.66 C62.36 44.45, 36.52 45.26, 11.17 44.66 M87.81 44.66 C66.86 45.3, 46.15 44.93, 11.17 44.66 M11.17 44.66 C3.71 45.91, 1.89 42.64, 0 33.5 M11.17 44.66 C3.36 42.39, 2.2 38.87, 0 33.5 M0 33.5 C-1.11 25.51, -0.71 22.87, 0 11.17 M0 33.5 C0.03 27.34, 0.87 19.88, 0 11.17 M0 11.17 C-1.25 4.36, 3.06 0.33, 11.17 0 M0 11.17 C-0.94 2.53, 4.23 1.65, 11.17 0" stroke="#1e1e1e" stroke-width="2" fill="none"></path></g><g transform="translate(977.2074968845909 401.39673095191574) rotate(0 39.96666717529297 10)"><text x="39.96666717529297" y="14.016" font-family="Virgil, Segoe UI Emoji" font-size="16px" fill="#1e1e1e" text-anchor="middle" style="white-space: pre;" direction="ltr" dominant-baseline="alphabetic">BlogState</text></g><g stroke-linecap="round"><g transform="translate(233.80841626618258 366.7364340823151) rotate(0 105.61556692134036 3.621105151588381)"><path d="M-1 1 C15.84 5.8, 65.19 32.79, 100.42 29 C135.64 25.22, 192.05 -13.17, 210.34 -21.69 M0.67 0.48 C17.43 5.48, 64.24 34.03, 99.59 30.56 C134.94 27.09, 194.39 -11.73, 212.77 -20.35" stroke="#1e1e1e" stroke-width="2" fill="none"></path></g><g transform="translate(233.80841626618258 366.7364340823151) rotate(0 105.61556692134036 3.621105151588381)"><path d="M196.26 -1.58 C201.99 -5.7, 204.47 -12.22, 212.77 -20.35 M196.26 -1.58 C201.29 -6.95, 206.4 -13.73, 212.77 -20.35" stroke="#1e1e1e" stroke-width="2" fill="none"></path></g><g transform="translate(233.80841626618258 366.7364340823151) rotate(0 105.61556692134036 3.621105151588381)"><path d="M188.05 -16.58 C195.84 -16.92, 200.35 -19.73, 212.77 -20.35 M188.05 -16.58 C195.44 -17.38, 203.04 -19.62, 212.77 -20.35" stroke="#1e1e1e" stroke-width="2" fill="none"></path></g></g><mask></mask><g stroke-linecap="round"><g transform="translate(534.3601438480537 351.0449784254297) rotate(0 56.127129849626726 8.449245353707283)"><path d="M0.29 -0.18 C8.94 3.53, 32.73 24.3, 51.31 23.26 C69.9 22.23, 101.62 -1.16, 111.79 -6.39 M-1.01 -1.32 C8.08 2.43, 35.08 25.5, 53.71 24.34 C72.35 23.18, 100.97 -2.98, 110.79 -8.28" stroke="#1e1e1e" stroke-width="2" fill="none"></path></g><g transform="translate(534.3601438480537 351.0449784254297) rotate(0 56.127129849626726 8.449245353707283)"><path d="M96.41 12.18 C99.61 5.94, 102.11 0.94, 110.79 -8.28 M96.41 12.18 C102.48 3.95, 106.2 -2.8, 110.79 -8.28" stroke="#1e1e1e" stroke-width="2" fill="none"></path></g><g transform="translate(534.3601438480537 351.0449784254297) rotate(0 56.127129849626726 8.449245353707283)"><path d="M86.63 -1.85 C92.43 -4.53, 97.43 -5.95, 110.79 -8.28 M86.63 -1.85 C96.33 -4.8, 103.69 -6.34, 110.79 -8.28" stroke="#1e1e1e" stroke-width="2" fill="none"></path></g></g><mask></mask><g transform="translate(821.0377484561068 277.0721207473616) rotate(0 48.41666793823242 10)"><text x="0" y="14.016" font-family="Virgil, Segoe UI Emoji" font-size="16px" fill="#1e1e1e" text-anchor="start" style="white-space: pre;" direction="ltr" dominant-baseline="alphabetic">transitionTo</text></g><g stroke-linecap="round"><g transform="translate(329.16418525802055 271.3806650904762) rotate(0 77.85376075915974 -4.828140202118902)"><path d="M-0.7 -1.13 C13.33 -6.53, 57.75 -36.07, 83.71 -32.21 C109.68 -28.35, 143.16 13.23, 155.09 22.04 M1.13 0.9 C15.08 -4.4, 57.51 -34.87, 82.99 -31.1 C108.47 -27.33, 141.95 14.8, 154.01 23.52" stroke="#1e1e1e" stroke-width="2" fill="none"></path></g><g transform="translate(329.16418525802055 271.3806650904762) rotate(0 77.85376075915974 -4.828140202118902)"><path d="M131.05 13.63 C135.13 17.03, 141.57 17.86, 154.01 23.52 M131.05 13.63 C139.18 17.77, 146.5 19.77, 154.01 23.52" stroke="#1e1e1e" stroke-width="2" fill="none"></path></g><g transform="translate(329.16418525802055 271.3806650904762) rotate(0 77.85376075915974 -4.828140202118902)"><path d="M142.77 1.18 C143.85 7.74, 147.25 11.78, 154.01 23.52 M142.77 1.18 C147.04 9.27, 150.54 15.33, 154.01 23.52" stroke="#1e1e1e" stroke-width="2" fill="none"></path></g></g><mask></mask><g stroke-linecap="round"><g transform="translate(527.117933544876 290.6932258989491) rotate(0 61.55878757700975 -16.294973182149533)"><path d="M-0.48 0.81 C9.98 -4.84, 41.08 -32.68, 61.62 -32.94 C82.15 -33.2, 112.33 -6.2, 122.74 -0.76 M1.47 0.19 C11.87 -5.37, 40.65 -31.58, 60.7 -31.58 C80.75 -31.59, 111.08 -5.21, 121.78 0.16" stroke="#1e1e1e" stroke-width="2" fill="none"></path></g><g transform="translate(527.117933544876 290.6932258989491) rotate(0 61.55878757700975 -16.294973182149533)"><path d="M97.43 -5.53 C103.84 -4.17, 106.93 -3.72, 121.78 0.16 M97.43 -5.53 C103.24 -4.7, 108.12 -3.6, 121.78 0.16" stroke="#1e1e1e" stroke-width="2" fill="none"></path></g><g transform="translate(527.117933544876 290.6932258989491) rotate(0 61.55878757700975 -16.294973182149533)"><path d="M106.79 -19.85 C111.38 -15.57, 112.54 -12.17, 121.78 0.16 M106.79 -19.85 C110.49 -15.65, 113.16 -11.15, 121.78 0.16" stroke="#1e1e1e" stroke-width="2" fill="none"></path></g></g><mask></mask><g transform="translate(315.88679970219437 404.1545206487317) rotate(0 15.658333778381348 10)"><text x="0" y="14.016" font-family="Virgil, Segoe UI Emoji" font-size="16px" fill="#1e1e1e" text-anchor="start" style="white-space: pre;" direction="ltr" dominant-baseline="alphabetic">href</text></g><g transform="translate(592.2978262734741 237.58368367564708) rotate(0 10.083333015441895 10)"><text x="0" y="14.016" font-family="Virgil, Segoe UI Emoji" font-size="16px" fill="#1e1e1e" text-anchor="start" style="white-space: pre;" direction="ltr" dominant-baseline="alphabetic">url</text></g><g transform="translate(836.4306360496021 359.6934941444106) rotate(0 33.233333587646484 10)"><text x="0" y="14.016" font-family="Virgil, Segoe UI Emoji" font-size="16px" fill="#1e1e1e" text-anchor="start" style="white-space: pre;" direction="ltr" dominant-baseline="alphabetic">navigate</text></g><g transform="translate(1083.3565434441425 311.64800890557854) rotate(0 33.233333587646484 10)"><text x="0" y="14.016" font-family="Virgil, Segoe UI Emoji" font-size="16px" fill="#1e1e1e" text-anchor="start" style="white-space: pre;" direction="ltr" dominant-baseline="alphabetic">navigate</text></g><g stroke-linecap="round"><g transform="translate(1122.0807896305123 301.0570866603639) rotate(0 -174.336475009482 -112.56370827383898)"><path d="M0.33 -0.82 C-2.79 -30.46, 39.56 -140.58, -18.48 -177.84 C-76.52 -215.11, -292.9 -216.52, -347.92 -224.41 M-0.95 1.37 C-3.71 -28.63, 41.79 -141.69, -16.1 -179.65 C-73.99 -217.6, -292.92 -218.96, -348.28 -226.37" stroke="#1e1e1e" stroke-width="2" fill="none"></path></g><g transform="translate(1122.0807896305123 301.0570866603639) rotate(0 -174.336475009482 -112.56370827383898)"><path d="M-324.23 -233.2 C-333.35 -231.99, -338.72 -227.47, -348.28 -226.37 M-324.23 -233.2 C-333.4 -231.27, -341.93 -228.54, -348.28 -226.37" stroke="#1e1e1e" stroke-width="2" fill="none"></path></g><g transform="translate(1122.0807896305123 301.0570866603639) rotate(0 -174.336475009482 -112.56370827383898)"><path d="M-325.47 -216.14 C-334.19 -220.43, -339.16 -221.41, -348.28 -226.37 M-325.47 -216.14 C-334.21 -220.36, -342.3 -223.77, -348.28 -226.37" stroke="#1e1e1e" stroke-width="2" fill="none"></path></g></g><mask></mask><g transform="translate(1142.671711875726 137.70243684832985) rotate(0 137.89999389648438 10)"><text x="0" y="14.016" font-family="Virgil, Segoe UI Emoji" font-size="16px" fill="#1e1e1e" text-anchor="start" style="white-space: pre;" direction="ltr" dominant-baseline="alphabetic">where to go is dependent on state</text></g><g transform="translate(1262.09906089797 313.41164000749177) rotate(0 66.10832977294922 10)"><text x="0" y="14.016" font-family="Virgil, Segoe UI Emoji" font-size="16px" fill="#1e1e1e" text-anchor="start" style="white-space: pre;" direction="ltr" dominant-baseline="alphabetic">title description </text></g></svg>