<svg version="1.1" xmlns="http://www.w3.org/2000/svg" viewBox="0 0 45 45" width="45" height="45">

	<rect x="0" y="0" width="45" height="45" fill="none"></rect>
	<g stroke-linecap="round" transform="translate(0 10) rotate(0 21.71788012572506 7.510640061358572)">
		<path d="M27.5 2 C30.54 3.17, 33.58 4.33, 37.94 6 C43.44 8, 43.44 8, 37.94 10 C34.51 10.99, 31.09 11.98, 27.5 13.02 C22 15.02, 22 15.02, 16.5 13.02 C13.9 12.31, 11.31 11.59, 5.5 10 C0 8, 0 8, 5.5 6 C8.32 4.98, 11.14 3.95, 16.5 2 C22 0, 22 0, 27.5 2"
			  stroke="none" stroke-width="0" fill="#ffffff"></path>
		<path d="M27.5 2 C31.15 3.4, 34.81 4.8, 37.94 6 M27.5 2 C31.09 3.37, 34.67 4.75, 37.94 6 M37.94 6 C43.44 8, 43.44 8, 37.94 10 M37.94 6 C43.44 8, 43.44 8, 37.94 10 M37.94 10 C34.48 11, 31.03 12, 27.5 13.02 M37.94 10 C34.91 10.87, 31.89 11.75, 27.5 13.02 M27.5 13.02 C22 15.02, 22 15.02, 16.5 13.02 M27.5 13.02 C22 15.02, 22 15.02, 16.5 13.02 M16.5 13.02 C13.54 12.21, 10.57 11.39, 5.5 10 M16.5 13.02 C12.75 11.99, 9.01 10.96, 5.5 10 M5.5 10 C0 8, 0 8, 5.5 6 M5.5 10 C0 8, 0 8, 5.5 6 M5.5 6 C8.65 4.85, 11.8 3.71, 16.5 2 M5.5 6 C8.13 5.04, 10.76 4.09, 16.5 2 M16.5 2 C22 0, 22 0, 27.5 2 M16.5 2 C22 0, 22 0, 27.5 2"
			  stroke="#ffffff" stroke-width="2" fill="none"></path>
	</g>
	<g stroke-linecap="round">
		<g transform="translate(1.377133761663572 22.09275530566083) rotate(0 9.900970391390729 3.4034585720401083)">
			<path d="M0 0 C3.3 1.13, 16.5 5.67, 19.8 6.81 M0 0 C3.3 1.13, 16.5 5.67, 19.8 6.81" stroke="#ffffff"
				  stroke-width="2" fill="none"></path>
		</g>
	</g>
	<mask></mask>
	<g stroke-linecap="round">
		<g transform="translate(21.17907454444139 29.054375112107664) rotate(0 10.44242970967025 -3.635512565588215)">
			<path d="M0 0 C3.48 -1.21, 17.4 -6.06, 20.88 -7.27 M0 0 C3.48 -1.21, 17.4 -6.06, 20.88 -7.27"
				  stroke="#ffffff" stroke-width="2" fill="none"></path>
		</g>
	</g>
	<mask></mask>
	<g stroke-linecap="round">
		<g transform="translate(1.60918775520986 25.882970533615662) rotate(0 9.900970391390729 3.4034585720401083)">
			<path d="M0 0 C3.3 1.13, 16.5 5.67, 19.8 6.81 M0 0 C3.3 1.13, 16.5 5.67, 19.8 6.81" stroke="#ffffff"
				  stroke-width="2" fill="none"></path>
		</g>
	</g>
	<mask></mask>
	<g stroke-linecap="round">
		<g transform="translate(21.256425875628338 32.84459034006068) rotate(0 10.597132372035048 -3.635512565588215)">
			<path d="M0 0 C3.53 -1.21, 17.66 -6.06, 21.19 -7.27 M0 0 C3.53 -1.21, 17.66 -6.06, 21.19 -7.27"
				  stroke="#ffffff" stroke-width="2" fill="none"></path>
		</g>
	</g>
	<mask></mask>
	<g stroke-linecap="round">
		<g transform="translate(1.686539086396806 29.750537092750164) rotate(0 9.900970391390729 3.4034585720401083)">
			<path d="M0 0 C3.3 1.13, 16.5 5.67, 19.8 6.81 M0 0 C3.3 1.13, 16.5 5.67, 19.8 6.81" stroke="#ffffff"
				  stroke-width="2" fill="none"></path>
		</g>
	</g>
	<mask></mask>
	<g stroke-linecap="round">
		<g transform="translate(21.333777206811646 36.712156899197) rotate(0 10.597132372035048 -3.635512565588215)">
			<path d="M0 0 C3.53 -1.21, 17.66 -6.06, 21.19 -7.27 M0 0 C3.53 -1.21, 17.66 -6.06, 21.19 -7.27"
				  stroke="#ffffff" stroke-width="2" fill="none"></path>
		</g>
	</g>
	<mask></mask>
</svg>