<svg version="1.1" xmlns="http://www.w3.org/2000/svg" viewBox="0 0 14 30"
	 width="30" height="30">

	<rect x="0" y="0" width="14" height="30" fill="none"></rect>
	<g transform="translate(1 16) rotate(0 5 10)">
		<text x="0" y="0" font-family="Tahoma" font-size="16px" font-weight="700" fill="#fff" text-anchor="start"
			  style="white-space: pre;" direction="ltr" dominant-baseline="alphabetic">+
		</text>
	</g>
	<g transform="translate(2 5) rotate(0 3.2866666316986084 10)">
		<text x="0" y="20" font-family="Tahoma" font-size="16px" font-weight="700" fill="#fff" text-anchor="start"
			  style="white-space: pre;" direction="ltr" dominant-baseline="alphabetic">-
		</text>
	</g>
	<g transform="translate(6 5) rotate(0 3.2866666316986084 10)">
		<text x="0" y="20" font-family="Tahoma" fill="#fff" font-weight="700" font-size="16px" text-anchor="start"
			  style="white-space: pre;" direction="ltr" dominant-baseline="alphabetic">-
		</text>
	</g>
	<g stroke-linecap="round">
		<g transform="translate(2.231467895104288 6.351864204723825) rotate(0 5.218945067117602 -2.5481509981736963)">
			<path d="M0 0 C0.91 -0.89, 3.7 -5.39, 5.44 -5.35 C7.18 -5.31, 9.6 -0.68, 10.44 0.26 M0 0 C0.91 -0.89, 3.7 -5.39, 5.44 -5.35 C7.18 -5.31, 9.6 -0.68, 10.44 0.26"
				  stroke="#ffffff" stroke-width="2" fill="none"></path>
		</g>
	</g>
	<mask></mask>
	<g stroke-linecap="round">
		<g transform="translate(2 27.83905315723314) rotate(179.99999999999326 5.124736959591246 -1.982902353015561)">
			<path d="M0 0 C0.87 -0.8, 3.54 -4.92, 5.25 -4.79 C6.96 -4.65, 9.42 -0.11, 10.25 0.82 M0 0 C0.87 -0.8, 3.54 -4.92, 5.25 -4.79 C6.96 -4.65, 9.42 -0.11, 10.25 0.82"
				  stroke="#ffffff" stroke-width="2" fill="none"></path>
		</g>
	</g>
	<mask></mask>
</svg>