<svg version="1.1" xmlns="http://www.w3.org/2000/svg" viewBox="0 0 44.41854443751072 55.16719072998421"
	 width="44.41854443751072" height="55.16719072998421">

	<g stroke-linecap="round">
		<g transform="translate(17.400615690050472 36.3569152068776) rotate(0 -1.3446297031860013 3.8018645116362677)">
			<path d="M0 0 C-0.45 1.27, -2.24 6.34, -2.69 7.6 M0 0 C-0.45 1.27, -2.24 6.34, -2.69 7.6" stroke="#1e1e1e"
				  stroke-width="2" fill="none"></path>
		</g>
	</g>
	<mask></mask>
	<g stroke-linecap="round">
		<g transform="translate(16.21043537713922 26.521688436047043) rotate(0 2.8933297560670326 -7.420624359747308)">
			<path d="M0 0 C0.63 -1.05, 2.82 -3.83, 3.79 -6.3 C4.75 -8.78, 5.45 -13.42, 5.79 -14.84 M0 0 C0.63 -1.05, 2.82 -3.83, 3.79 -6.3 C4.75 -8.78, 5.45 -13.42, 5.79 -14.84"
				  stroke="#1e1e1e" stroke-width="2" fill="none"></path>
		</g>
	</g>
	<mask></mask>
	<g stroke-linecap="round">
		<g transform="translate(27.293153007383808 32.365658494683885) rotate(0 3.2315848348898726 -8.174008700018021)">
			<path d="M0 0 C0.42 -1.67, 1.42 -7.32, 2.5 -10.04 C3.58 -12.77, 5.8 -15.3, 6.46 -16.35 M0 0 C0.42 -1.67, 1.42 -7.32, 2.5 -10.04 C3.58 -12.77, 5.8 -15.3, 6.46 -16.35"
				  stroke="#1e1e1e" stroke-width="2" fill="none"></path>
		</g>
	</g>
	<mask></mask>
	<g stroke-linecap="round"
	   transform="translate(21.553846383165364 10.412512611883358) rotate(16.50436138174443 6.537043392145279 3.05876239787176)">
		<path d="M13.07 3.06 C13.07 3.24, 13.04 3.42, 12.97 3.59 C12.91 3.76, 12.81 3.94, 12.68 4.1 C12.55 4.27, 12.39 4.43, 12.2 4.59 C12.01 4.74, 11.79 4.89, 11.54 5.02 C11.3 5.16, 11.03 5.29, 10.74 5.4 C10.45 5.52, 10.13 5.62, 9.81 5.71 C9.48 5.8, 9.13 5.87, 8.77 5.93 C8.42 5.99, 8.04 6.04, 7.67 6.07 C7.3 6.1, 6.92 6.12, 6.54 6.12 C6.16 6.12, 5.77 6.1, 5.4 6.07 C5.03 6.04, 4.66 5.99, 4.3 5.93 C3.95 5.87, 3.6 5.8, 3.27 5.71 C2.94 5.62, 2.62 5.52, 2.34 5.4 C2.05 5.29, 1.77 5.16, 1.53 5.02 C1.29 4.89, 1.06 4.74, 0.88 4.59 C0.69 4.43, 0.52 4.27, 0.39 4.1 C0.26 3.94, 0.17 3.76, 0.1 3.59 C0.03 3.42, 0 3.24, 0 3.06 C0 2.88, 0.03 2.7, 0.1 2.53 C0.17 2.35, 0.26 2.18, 0.39 2.01 C0.52 1.85, 0.69 1.68, 0.88 1.53 C1.06 1.38, 1.29 1.23, 1.53 1.09 C1.77 0.96, 2.05 0.83, 2.34 0.72 C2.62 0.6, 2.94 0.5, 3.27 0.41 C3.6 0.32, 3.95 0.25, 4.3 0.18 C4.66 0.12, 5.03 0.08, 5.4 0.05 C5.77 0.02, 6.16 0, 6.54 0 C6.92 0, 7.3 0.02, 7.67 0.05 C8.04 0.08, 8.42 0.12, 8.77 0.18 C9.13 0.25, 9.48 0.32, 9.81 0.41 C10.13 0.5, 10.45 0.6, 10.74 0.72 C11.03 0.83, 11.3 0.96, 11.54 1.09 C11.79 1.23, 12.01 1.38, 12.2 1.53 C12.39 1.68, 12.55 1.85, 12.68 2.01 C12.81 2.18, 12.91 2.35, 12.97 2.53 C13.04 2.7, 13.06 2.97, 13.07 3.06 C13.09 3.15, 13.09 2.97, 13.07 3.06"
			  stroke="#1e1e1e" stroke-width="2" fill="none"></path>
	</g>
	<g stroke-linecap="round">
		<g transform="translate(19.970418180415436 37.56346170671168) rotate(0 -1.3446297031860013 3.8018645116362677)">
			<path d="M0 0 C-0.45 1.27, -2.24 6.34, -2.69 7.6 M0 0 C-0.45 1.27, -2.24 6.34, -2.69 7.6" stroke="#1e1e1e"
				  stroke-width="2" fill="none"></path>
		</g>
	</g>
	<mask></mask>
	<g stroke-linecap="round">
		<g transform="translate(18.8088931407583 22.23088887999802) rotate(0 2.426136791706085 7.644619702165983)">
			<path d="M0 0 C-0.76 0.15, -3.36 0.46, -4.58 0.92 C-5.8 1.37, -6.62 1.86, -7.32 2.75 C-8.03 3.63, -8.96 4.84, -8.79 6.23 C-8.62 7.61, -7.72 9.67, -6.32 11.08 C-4.91 12.48, -2.53 13.95, -0.37 14.65 C1.8 15.35, 4.58 15.53, 6.68 15.29 C8.79 15.05, 11.11 14.25, 12.27 13.18 C13.43 12.12, 13.84 10.41, 13.64 8.88 C13.44 7.35, 11.51 4.84, 11.08 4.03 M0 0 C-0.76 0.15, -3.36 0.46, -4.58 0.92 C-5.8 1.37, -6.62 1.86, -7.32 2.75 C-8.03 3.63, -8.96 4.84, -8.79 6.23 C-8.62 7.61, -7.72 9.67, -6.32 11.08 C-4.91 12.48, -2.53 13.95, -0.37 14.65 C1.8 15.35, 4.58 15.53, 6.68 15.29 C8.79 15.05, 11.11 14.25, 12.27 13.18 C13.43 12.12, 13.84 10.41, 13.64 8.88 C13.44 7.35, 11.51 4.84, 11.08 4.03"
				  stroke="#1e1e1e" stroke-width="2" fill="none"></path>
		</g>
	</g>
	<mask></mask>
</svg>