<?xml version="1.0" standalone="no"?>
<!DOCTYPE svg PUBLIC "-//W3C//DTD SVG 20010904//EN"
 "http://www.w3.org/TR/2001/REC-SVG-20010904/DTD/svg10.dtd">
<svg version="1.0" xmlns="http://www.w3.org/2000/svg"
 width="33.000000pt" height="33.000000pt" viewBox="0 0 33.000000 33.000000"
 preserveAspectRatio="xMidYMid meet">

<g transform="translate(0.000000,33.000000) scale(0.100000,-0.100000)"
fill="#000000" stroke="none">
<path d="M0 165 l0 -165 165 0 165 0 0 165 0 165 -165 0 -165 0 0 -165z m300
121 c0 -23 -3 -24 -58 -21 -58 3 -58 2 -60 -27 -4 -45 6 -50 43 -22 33 25 34
25 44 5 15 -27 15 -27 -24 -51 -19 -12 -35 -26 -35 -31 0 -5 16 -19 35 -31 37
-25 43 -39 22 -57 -10 -8 -22 -5 -47 14 -19 14 -36 25 -38 25 -2 0 -2 -18 0
-40 3 -37 2 -40 -22 -40 -24 0 -26 3 -22 35 5 41 -7 45 -45 15 -20 -15 -29
-17 -39 -9 -22 18 -16 32 21 57 19 12 35 26 35 31 0 5 -16 19 -35 31 -37 23
-44 40 -21 59 11 9 20 6 44 -14 33 -27 43 -22 40 19 -3 31 -12 35 -75 32 -45
-3 -50 -1 -49 18 1 12 4 23 7 26 4 3 68 4 143 2 135 -3 136 -3 136 -26z"/>
</g>
</svg>
